<svg height="25.511721pt" viewBox="0 0 98.644528 25.511719" width="98.644531pt" xmlns="http://www.w3.org/2000/svg"><g transform="translate(-684.52645 -667.09726)"><g fill="#16356e"><path d="m692.03817 681.91366c-.12891.0117-.28907.12891-.26563.26563.0312.0937.19922.17187.3086.16797.30078-.0234.30468-.47266-.043-.4336"/><path d="m691.69442 683.31601h-.25782l-.29687.47656h-.008v-.47656h-.23438v1.17969h.23438v-.34766l.0898-.14063.24219.48829h.26562l-.35547-.66797zm0 0"/><path d="m692.26082 683.77304-.15234-.45703h-.27344l.3125.71484v.46485h.23047v-.46485l.30859-.71484h-.25781zm0 0"/><path d="m693.35457 684.10898c0 .0547-.008.10156-.0234.13281-.008.0391-.0273.0586-.0469.0781-.0234.0156-.0508.0234-.082.0234-.0352 0-.0664-.008-.082-.0234-.0273-.0195-.043-.0391-.0508-.0781-.0156-.0312-.0234-.0781-.0234-.13281-.008-.0586-.008-.1211-.008-.19922 0-.082 0-.14844.008-.20313 0-.0547.008-.10156.0234-.13672.008-.0312.0234-.0625.0508-.0781.0156-.0117.0469-.0234.082-.0234.0312 0 .0586.0117.082.0234.0195.0156.0391.0469.0469.0781.0156.0352.0234.082.0234.13672 0 .0547.008.1211.008.20313 0 .0781-.008.14062-.008.19922m.17969-.64453c-.0312-.0508-.0703-.0937-.125-.125-.0547-.0312-.12109-.043-.20703-.043-.0898 0-.16406.0117-.21484.043-.0508.0312-.0898.0742-.11719.125-.0312.0547-.0469.12109-.0586.19531-.008.0742-.008.16015-.008.25 0 .0898 0 .17187.008.24219.0117.0742.0273.14062.0586.19531.0273.0547.0664.0977.11719.12109.0508.0312.125.043.21484.043.0859 0 .15234-.0117.20703-.043.0547-.0234.0937-.0664.125-.12109.0273-.0547.043-.1211.0508-.19531.0117-.0703.0156-.15235.0156-.24219 0-.0898-.004-.17578-.0156-.25-.008-.0742-.0234-.14063-.0508-.19531"/><path d="m693.72176 683.51523h.25781v.97656h.23828v-.97656h.25391v-.19922h-.75zm0 0"/><path d="m695.1202 684.10898c-.004.0547-.0117.10156-.0195.13281-.0156.0391-.0274.0586-.0508.0781-.0234.0156-.0469.0234-.0859.0234-.0352 0-.0625-.008-.0859-.0234-.0195-.0195-.0391-.0391-.0469-.0781-.008-.0312-.0195-.0781-.0234-.13281-.004-.0586-.004-.1211-.004-.19922 0-.082 0-.14844.004-.20313.004-.0547.0156-.10156.0234-.13672.008-.0312.0273-.0625.0469-.0781.0234-.0117.0508-.0234.0859-.0234.0391 0 .0625.0117.0859.0234.0234.0156.0352.0469.0508.0781.008.0352.0156.082.0195.13672.0117.0547.0117.1211.0117.20313 0 .0781 0 .14062-.0117.19922m.17969-.64453c-.0312-.0508-.0703-.0937-.125-.125-.0508-.0312-.1211-.043-.21094-.043-.0859 0-.16016.0117-.21094.043-.0508.0312-.0937.0742-.11719.125-.0312.0547-.0508.12109-.0586.19531-.0117.0742-.0156.16015-.0156.25 0 .0898.004.17187.0156.24219.008.0742.0273.14062.0586.19531.0234.0547.0664.0977.11719.12109.0508.0312.125.043.21094.043.0898 0 .16015-.0117.21094-.043.0547-.0234.0937-.0664.125-.12109.0273-.0547.0469-.1211.0547-.19531.008-.0703.008-.15235.008-.24219 0-.0898 0-.17578-.008-.25-.008-.0742-.0273-.14063-.0547-.19531"/><path d="m699.78817 684.15976c0 .0625-.008.10547-.0195.14062-.0156.0273-.0391.043-.0859.043-.0391 0-.0703-.0156-.0859-.043-.0117-.0352-.0195-.0781-.0195-.14062v-.0352h-.21484v.0508c0 .043.004.0898.0156.12891.008.043.0195.082.043.11328.0312.0312.0586.0508.0937.0703.0469.0156.0977.0234.16016.0234.11328 0 .20312-.0234.26562-.0781.0547-.0547.082-.14063.082-.26954v-.85156h-.23437zm0 0"/><path d="m700.51082 684.05429.10938-.53125h.004l.11329.53125zm-.0273-.73828-.32031 1.17578h.25l.0508-.24609h.32031l.0469.24609h.24609l-.30859-1.17578zm0 0"/><path d="m701.67098 683.8082c-.0234.0273-.0625.0469-.11719.0469h-.10156v-.36328h.0937c.0625 0 .10547.0156.13281.043.0234.0352.0312.082.0312.14062 0 .0586-.008.10547-.0391.13282m.26562-.26954c-.008-.0391-.0352-.0781-.0547-.10937-.0274-.0312-.0586-.0586-.0977-.082-.043-.0195-.0977-.0312-.15625-.0312h-.41406v1.17578h.23828v-.46875h.125c.0586 0 .10937-.004.15625-.0195.043-.0117.082-.0391.12109-.0586.0274-.0352.0469-.0742.0742-.11328.0117-.0469.0234-.0977.0234-.16015 0-.0469-.008-.0859-.0156-.13282"/><path d="m702.29207 684.05429.11719-.53125h.004l.10937.53125zm-.0273-.73828-.3125 1.17578h.25l.0469-.24609h.31641l.0547.24609h.24609l-.3125-1.17578zm0 0"/><path d="m703.55379 684.12851-.28906-.8125h-.26953v1.17969h.21094v-.82422h.004l.28906.82422h.26954v-1.17969h-.21485zm0 0"/><path d="m696.17879 684.45273c.0508 0 .0859-.0352.0859-.082v-.73438h.61328v.73438c0 .0469.0352.082.0859.082.0469 0 .0781-.0352.0781-.082v-.73438h.72657v.73438c0 .0469.0352.082.0781.082.0508 0 .0898-.0352.0898-.082v-.73438h.60938v.73438c0 .0469.0352.082.082.082.0508 0 .0898-.0352.0898-.082v-.81641c0-.0469-.0391-.0859-.0898-.0859h-1.14062v-.36719c0-.043-.0352-.082-.0781-.082-.0508 0-.0859.0391-.0859.082v.36719h-1.14453c-.0469 0-.082.0391-.082.0859v.81641c0 .0469.0352.082.082.082"/><path d="m696.16707 685.7457h.50782c.0469 0 .0859-.0352.0859-.082 0-.043-.0391-.0781-.0859-.0781h-.42188v-.19141h.42188c.0469 0 .0859-.0352.0859-.082 0-.0469-.0391-.082-.0859-.082h-.42188v-.20312h.42188c.0469 0 .0859-.0391.0859-.0859 0-.0469-.0391-.0859-.0859-.0859h-.42188v-.12891c0-.0469-.0312-.0859-.0859-.0859-.043 0-.0781.0391-.0781.0859v.9375c0 .0469.0352.082.0781.082"/><path d="m698.63973 684.64413c-.0469 0-.0781.0352-.0781.082v.13282h-.42578c-.043 0-.082.0391-.082.082 0 .0469.0391.0859.082.0859h.42578v.20312h-.42578c-.043 0-.082.0391-.082.082 0 .0508.0391.082.082.082h.42578v.1875h-.42578c-.043 0-.082.0391-.082.082 0 .0469.0391.082.082.082h.50391c.0469 0 .082-.0352.082-.082v-.9375c0-.0469-.0352-.082-.082-.082"/><path d="m697.40926 685.34726-.21875-.15235.21875-.14453.20703.14453zm.4375-.15235c0-.0273-.008-.0508-.0391-.0703l-.25391-.17578.25391-.17969c.0469-.0273.0508-.082.0273-.11718-.0273-.043-.0781-.0508-.11328-.0274l-.3125.22266-.31641-.22266c-.0391-.0234-.0898-.0156-.11328.0274-.0273.0351-.0195.0898.0195.11718l.26172.17969-.26172.17578c-.0195.0195-.0352.043-.0352.0703 0 .0312.0156.0508.0352.0703l.26172.18359-.26172.17969c-.0391.0273-.0469.0781-.0195.11328.0156.0273.0391.0391.0625.0391.0195 0 .0391-.008.0508-.0117l.31641-.21875.3125.21875c.0117.004.0234.0117.0469.0117.0234 0 .0547-.0117.0664-.0391.0234-.0352.0195-.0859-.0273-.11328l-.25391-.17969.25391-.18359c.0312-.0195.0391-.0391.0391-.0703"/><path d="m698.63192 686.00741h-2.45313c-.043 0-.082.0352-.082.0859v1.40625c0 .0469.0391.082.082.082.0508 0 .0859-.0352.0859-.082v-1.32422h2.28516v1.30469c0 .0469.0312.082.082.082.0469 0 .0898-.0351.0898-.082v-1.38672c0-.0508-.043-.0859-.0898-.0859"/><path d="m696.91317 686.48398h.98437v.19922h-.98437zm1.39453-.16407c-.0469 0-.082.0391-.082.082v.65234h-.74219v-.19922h.49609c.0469 0 .082-.0391.082-.082v-.37109c0-.043-.0352-.082-.082-.082h-1.14843c-.0469 0-.082.0391-.082.082v.37109c0 .043.0352.082.082.082h.48437v.19922h-.72656v-.65234c0-.043-.0391-.082-.0859-.082-.0469 0-.0898.0391-.0898.082v.73437c0 .0469.043.082.0898.082h.8125v.19922h-.84375c-.043 0-.0859.0352-.0859.082 0 .0469.043.082.0859.082h.92578c.0547 0 .0859-.0352.0859-.082v-.28125h.82422c.0469 0 .0859-.0351.0859-.082v-.73437c0-.043-.0391-.082-.0859-.082"/><path d="m706.09676 688.66757c-2.25781 2.25781-5.36719 3.65234-8.8125 3.65234-3.44141 0-6.5625-1.39453-8.81641-3.65234-2.25781-2.25-3.65625-5.36719-3.65625-8.8125 0-3.44922 1.39844-6.55859 3.65625-8.81641 2.25391-2.25781 5.375-3.65234 8.81641-3.65234 3.44531 0 6.55469 1.39453 8.8125 3.65234 2.26172 2.25782 3.65234 5.36719 3.65234 8.81641 0 3.44531-1.39062 6.5625-3.65234 8.8125m-8.8125-21.57031c-7.04687 0-12.75781 5.71094-12.75781 12.75781 0 7.04297 5.71094 12.75391 12.75781 12.75391 7.04297 0 12.75391-5.71094 12.75391-12.75391 0-7.04687-5.71094-12.75781-12.75391-12.75781"/><path d="m705.70223 688.26523c-2.16016 2.15625-5.13672 3.48828-8.41797 3.48828-3.28516 0-6.26172-1.33203-8.41797-3.48828-2.15234-2.14844-3.48047-5.125-3.48047-8.41016 0-3.28906 1.32813-6.26172 3.48047-8.41406 2.15625-2.15625 5.13281-3.48828 8.41797-3.48828 3.28125 0 6.25781 1.33203 8.41797 3.48828 2.15234 2.15234 3.48437 5.125 3.48437 8.41406 0 3.28516-1.33203 6.26172-3.48437 8.41016m-8.41797-20.49219c-6.67187 0-12.08203 5.40625-12.08203 12.08203 0 6.67188 5.41016 12.08203 12.08203 12.08203 6.67188 0 12.08203-5.41015 12.08203-12.08203 0-6.67578-5.41015-12.08203-12.08203-12.08203"/><path d="m688.03426 679.54648-.67578-.0586-.26953-.33984 1.03125-.60938.0234-.34375-1.22266.7461-.70703-.88672-.0352.36719.86719 1.04297-.94141-.0781-.0234.25781 1.92968.16016zm0 0"/><path d="m688.39754 677.31601.0742-.25391-.75-.22656-.89844-1.03516-.0898.30078.73437.79688-1.04687.26562-.0898.29688 1.3164-.375zm0 0"/><path d="m687.71785 674.41757c.10938-.18359.25-.28906.42969-.32422.17578-.0351.36328.004.5625.11719.1875.10156.32813.24609.42188.41797.0976.17187.082.35937-.0274.55859-.12109.21094-.27734.32813-.45703.35547-.17969.0195-.36328-.0273-.55469-.13281-.23046-.13281-.3789-.28906-.43359-.46485-.0547-.17968-.0352-.35546.0586-.52734m.22266 1.22266c.25391.14453.5.19922.74609.15625.25391-.0508.46094-.20703.59766-.46485.16797-.28125.1875-.55078.0742-.8125-.0937-.21875-.26563-.40234-.51953-.54297-.23047-.13281-.45703-.1875-.66797-.16015-.27344.0352-.49219.19922-.66016.49609-.15625.28906-.17968.5625-.0547.82813.0977.19922.25781.375.48437.5"/><path d="m689.06551 672.61288 1.26953 1.14453.1836-.19921-1.26954-1.14454.4375-.48437-.16796-.15625-1.0586 1.17187.17188.14844zm0 0"/><path d="m690.86629 670.91757c.16797-.11719.33985-.15625.51953-.11328.17578.0469.33594.16016.46094.34375.13281.17578.19922.36328.21094.55859.0156.19532-.0742.35547-.26172.49219-.19531.14063-.38672.1875-.55469.12891-.17969-.0547-.32812-.17578-.45312-.34766-.15625-.21875-.22266-.41797-.19922-.60156.0234-.19141.11328-.33594.27734-.46094m.29688 1.66406c.2539.0586.5039 0 .74609-.17187.25781-.1875.39453-.42188.39844-.70313.0117-.24609-.0742-.48047-.23828-.71875-.15625-.21484-.33985-.35547-.54297-.42187-.26172-.0859-.53125-.0234-.80469.17187-.26562.19141-.40234.4336-.39453.72657 0 .23046.0742.44921.23047.66406.17187.23437.37109.38672.60547.45312"/><path d="m693.89754 670.90976c.17969.1914.42969.23828.74219.14453.3125-.0937.49219-.27344.53516-.53125.0273-.14063.004-.32813-.0664-.55469l-.31641-1.04297-.25.0781.34766 1.14844c.0391.13671.0469.25.0312.33593-.0312.17188-.15625.28907-.36719.35547-.18359.0508-.33203.0234-.44531-.0859-.0742-.0781-.13672-.17968-.17969-.3164l-.34375-1.14453-.25781.0742.32031 1.04687c.0625.22266.14844.39063.25.49219"/><path d="m696.27254 670.65585-.082-1.5664 1.0625 1.51171.29297-.0156-.0937-1.9375-.25.0156.0742 1.5625-1.04688-1.51171-.30859.0195.10156 1.93359zm0 0"/><path d="m698.80379 668.77695-.26172-.0274-.23828 1.92188.26172.0312zm0 0"/><path d="m700.07332 671.04257 1.23047-1.65234-.28515-.0859-.9961 1.42578-.0625-1.74219-.28125-.082.12891 2.0586zm0 0"/><path d="m702.4366 672.14413.10547-.20312-1.02343-.56641.32421-.57812.92969.52343.10547-.20312-.92578-.51172.28125-.52344 1.01172.5625.10937-.20312-1.22656-.6875-.94141 1.69922zm0 0"/><path d="m704.31551 671.44101.46094.41797c.0664.0586.10937.11328.13281.17187.0312.0977.008.20703-.0898.30469-.082.0977-.17188.14062-.25391.125-.0859-.004-.17187-.0547-.25781-.13281l-.4336-.39844zm-1.15234 1.26562.5625-.61718.42578.39062c.0781.0703.125.13281.14453.18359.0352.0898.0117.17579-.0664.28125l-.21093.25c-.0469.0586-.0781.10157-.0898.1211-.0156.0234-.0273.043-.0312.0586l.23828.22266.0312-.0312c-.0195-.043-.008-.0937.0195-.14844.0195-.0312.0508-.0781.0977-.12891l.16797-.20312c.0664-.0859.11328-.16016.12109-.21875 0-.0664-.0156-.13672-.0469-.21094.0859.0312.17969.0312.26562.008.0859-.0234.16797-.0781.25-.16796.14844-.16407.17578-.33204.10547-.51563-.043-.0977-.10937-.19141-.21875-.28906l-.65625-.59375-1.30859 1.43359zm0 0"/><path d="m705.05379 674.55038c-.12109-.18359-.14844-.33593-.0977-.47656.0352-.0781.0977-.14844.1875-.21484l-.14454-.20313c-.17187.11719-.26953.26563-.29687.44141-.0234.17969.0273.36328.15625.5625.11719.16015.25.28515.41406.35937.16406.0742.33594.0508.51172-.0703.14063-.0977.21484-.22266.21875-.37109.0117-.0898-.0117-.1875-.0586-.3125l-.10157-.25c-.0586-.17188-.0937-.28516-.10546-.34375-.004-.0898.0312-.15625.10937-.21485.0742-.0508.15625-.0625.24219-.043.0977.0156.17969.0859.26562.20313.0977.15625.13282.28906.0977.41406-.0234.0664-.082.13281-.15625.20313l.14062.20312c.17579-.125.26954-.26953.26954-.4414.008-.16797-.0508-.33204-.16407-.4961-.11328-.17969-.25781-.28125-.41406-.3164-.16016-.0352-.3125-.004-.46094.0937-.1289.0898-.19531.21093-.19531.35546 0 .082.0312.20313.0898.35938l.0977.24609c.0508.12891.0742.23828.0742.31641 0 .0742-.043.14453-.13281.20703-.10938.0781-.23438.0703-.36719-.0234-.0664-.0508-.12891-.10937-.17969-.1875"/><path d="m705.7491 676.13632 1.75391-.81641-.10937-.24609-1.75782.81641zm0 0"/><path d="m706.15926 677.2496.0625.25391 1.64844-.46094.17578.62891.22266-.0664-.42188-1.51172-.22266.0625.17188.63281zm0 0"/><path d="m706.4991 679.08945.0156.26171.78906-.0547 1.20703.65625-.0273-.3086-.96875-.49609.89453-.61719-.0234-.30859-1.10156.8125zm0 0"/><path d="m688.33504 684.65195-.39453-.86719.53906-.2461.45703.98438.21094-.10156-.57031-1.22266-1.75391.80859.10938.2461.79687-.3711.39844.86719zm0 0"/><path d="m689.91317 686.16366c-.0391.17969-.14844.33594-.32813.48047-.17578.12891-.35156.20703-.55078.22657-.19531.0195-.36328-.0625-.50781-.2461-.14844-.1914-.19141-.3789-.14063-.55078.0508-.17969.15625-.33203.33594-.46484.20313-.16016.40625-.23438.58984-.21875.19141.0117.33985.10156.46485.25781.125.16797.17578.33594.13672.51562m.0391-.66796c-.19922-.26172-.44922-.38672-.73828-.36719-.22266.008-.44531.0977-.65235.2539-.22656.17579-.375.38672-.42968.61719-.0508.25781.0117.50781.1914.74219.19532.25391.4375.37891.71875.37891.24219 0 .48047-.0899.71094-.26954.21094-.16406.33984-.34375.40234-.55078.0742-.26953.008-.53125-.20312-.80468"/><path d="m691.8702 687.44101-.75391.93359c-.0859.10938-.17578.1836-.26172.21875-.15234.0742-.32031.0352-.5-.10547-.14062-.11718-.20312-.2539-.17578-.41797.0156-.10546.0703-.21093.16016-.32421l.75-.9336-.21094-.16406-.68359.84766c-.14063.1875-.23438.34765-.26563.48828-.0547.25781.0508.49218.30078.69531.25782.20312.5.25391.74219.14844.13672-.0625.27344-.17969.42188-.3711l.68359-.85156zm0 0"/><path d="m693.07723 689.89023-.19922-1.82813-.28125-.1289-.83203 1.75.22656.10937.66797-1.41797.21875 1.83594.26563.125.83593-1.75391-.23437-.10547zm0 0"/><path d="m695.66707 690.02695c-.008.0625-.0312.1289-.0586.19531-.0469.11719-.0977.20703-.17188.27344-.0781.0859-.17578.13281-.27734.14062-.0625.008-.13672 0-.22266-.0156l-.44531-.0977.3125-1.45313.44922.0898c.19922.0508.33203.14062.39453.29297.0625.14843.0742.33984.0195.57422m-.32031-1.07422-.75391-.15625-.40625 1.89453.75391.16015c.32031.0664.57813-.0195.76953-.28906.10547-.14453.19141-.3164.23047-.51953.0547-.25781.0391-.48828-.0508-.67969-.10156-.21875-.28516-.35547-.54297-.41015"/><path d="m697.03035 690.8746-.0117-.66015 1.0664-.0117-.008-.22657-1.05859.0117-.008-.58593 1.15235-.0117-.004-.23828-1.41016.0156.0234 1.9375 1.42969-.0195v-.22656zm0 0"/><path d="m700.25692 690.24179c-.0352.10547-.0977.19141-.19532.25-.0391.0312-.10937.0547-.19531.0742l-.44531.10937-.35156-1.44531.4414-.10547c.19532-.0508.36328-.0234.48047.0859.125.10547.21485.27734.27344.50781.0195.0625.0234.125.0352.20313.004.125-.0117.23047-.043.32031m-.0899-1.22266c-.18359-.14843-.40234-.1914-.65625-.1289l-.7539.18359.46484 1.88672.75-.18359c.31641-.0781.51172-.27735.5625-.59766.0312-.17578.0312-.36719-.0156-.57031-.0664-.26172-.17969-.44922-.35157-.58985"/><path d="m702.40926 687.6832c.0469.14453.0625.25.0273.32031-.043.0703-.1289.16015-.26562.26953l.10156.14844.3711-.24219.73046 1.12109.21875-.14062-1.03125-1.57813zm0 0"/><path d="m704.99129 687.81601c-.0977.0937-.19922.14062-.29687.13281-.0899-.004-.17578-.043-.24219-.11719-.0859-.082-.12109-.16797-.11328-.26953.004-.0937.0547-.17969.13281-.26172.0859-.082.17188-.125.27344-.13281.0977-.008.1914.0391.27734.125.082.0859.11328.17188.10156.26953-.008.0937-.0508.17578-.13281.25391m-.88281-.55469c-.0859.0117-.15234-.0195-.21484-.082-.0547-.0547-.0859-.12891-.0898-.20313-.008-.0781.0352-.15625.11719-.23437.082-.082.16797-.12109.24219-.11719.0859.004.14843.0312.19531.082.0586.0586.0937.12891.0937.21485 0 .082-.0508.16015-.12109.23047-.0703.0586-.14063.0976-.22266.10937m.74609-.32031c-.0664-.004-.14062.0117-.21875.0391.0234-.0781.0312-.14453.0274-.19531-.004-.0977-.0508-.1836-.13672-.26563-.0859-.0977-.20313-.14062-.33985-.13672-.14062 0-.27734.0664-.41015.19532-.13281.1289-.20313.26562-.20703.41015-.004.14453.0469.26563.15234.36719.0742.0781.16406.12109.25781.12109.0547.004.11719-.008.17969-.0352-.0469.10156-.0625.20703-.043.30469.0156.0937.0625.1875.14453.26171.13282.14063.27735.19922.4336.1836.16015-.0195.3125-.0859.44531-.21485.14453-.14453.21875-.29687.21875-.45703 0-.16406-.0547-.30078-.16797-.41797-.10156-.10156-.21094-.15625-.33594-.16015"/><path d="m705.79207 685.82773c-.0703.10547-.15625.16797-.25.17187-.0898.0117-.1875-.0195-.29687-.0898-.10156-.0742-.16797-.15625-.19141-.26172-.0312-.10156-.008-.19922.0625-.29688.0625-.0859.14063-.13671.23828-.16015.0977-.0156.19922.0156.3125.0937.125.0898.19141.18359.19532.27734.0117.10547-.0195.19141-.0703.26563m.24219-.625c-.16797-.11719-.32031-.19141-.47266-.22657-.25781-.0508-.47265.0352-.625.25782-.12109.16406-.15234.32812-.10937.48828.0469.16015.13672.28906.27734.38672.15235.10547.30469.14453.45703.12109.15235-.0195.28125-.10547.38282-.25391.0547-.0781.0898-.15234.10156-.23437.0195-.082.008-.16797-.0273-.26563.21484.19532.33984.35157.3789.47266.0312.11719.0117.22656-.0547.31641-.0312.0508-.082.0859-.1289.11328-.0937.0508-.19531.0391-.3086-.0312l-.13671.19922c.12109.0859.25.10937.3789.0898.13672-.0273.25391-.11328.36328-.26562.15625-.22657.14063-.47266-.0312-.73438-.10937-.16016-.2539-.30469-.44531-.43359"/><path d="m706.83114 683.91366c-.125-.13671-.23438-.28125-.32422-.43359-.0977-.14844-.16016-.26562-.1875-.34766l-.1875-.082-.53516 1.20703.21875.0937.42578-.95703c.0859.1836.19922.3711.34375.57032.2461.32812.51953.59375.82422.79687l.10547-.24219c-.16016-.12109-.27734-.20312-.34375-.26172-.10938-.0898-.21875-.20312-.33984-.34375"/><path d="m705.66317 680.02695c-.0469 2.24609-.96875 4.28125-2.44922 5.75781-1.51172 1.51953-3.61719 2.45703-5.92969 2.45703-2.32031 0-4.41797-.9375-5.92969-2.45703-1.4375-1.42578-2.33984-3.375-2.4414-5.52735 0-.0117 0-.0234-.004-.0391.12891-.0312.30469-.0898.45313-.21094.2539-.19921.35937-.19531.53125-.15234.17968.0391.3164-.008.41796-.0859.10157-.0781.17188-.12109.29297-.1289.125-.0117.26563-.0977.39063-.20313.12109-.10937.27344-.23828.43359-.19531.16016.043.30469.0742.41797.0312.10938-.0391.26172-.15234.32813-.26563.0664-.11328.1914-.28125.35546-.33593.0781-.0156.21485-.0391.35938-.0586.22266.0586.37891.25391.63281.375.26172.125.51172.25782.76953.35547.26172.0937.47657.13672.69922.2461.22266.11718.11719.043.25391.15625 0 0 .15625.10156.14844.17187-.0156.0703 0 .19531 0 .19531-.0391.23438-.0352.42578-.0742.51953-.043.10547-.0352.15235-.0547.28125-.0195.13282-.0273.19141-.043.29688-.0195.10937-.0742.17187-.10937.23828-.0352.0625-.0469.21875-.1211.26563-.0742.0391-.21484.082-.30469.0859-.082.0117-.23437.0234-.30859.0703-.0742.043-.20703.0976-.32422.11718-.11719.0156-.26953.0195-.41015.043-.14844.0156-.16407.0391-.32032.0312-.16015-.004-.30468-.0586-.39453-.0664-.0937-.0117-.19531-.0156-.28125.0391-.082.0508-.0859.13672-.0625.17969.0273.043.0859.1289.25391.15234.16406.0234.25.0352.36328.0273.10937-.004.32031 0 .46484 0s.38672.008.53516-.0312c.14453-.043.32422-.10937.46094-.12109 0 0 .14843-.0352.2539-.0234.10938.0195.23047.0664.28516.082.0586.0117.31641.0391.45703.043.12891.0117.30469.0234.4375.0156l.60547-.0625c.30859 0 .26172-.25.11328-.28907-.0664-.0195-.21094.0352-.29687.0469 0 0-.30469.0352-.44922-.10938-.0508-.0703-.0508-.15625-.004-.3125.0508-.16015.0547-.28906 0-.41796-.0312-.0899-.0312-.17579-.0312-.21094.0195-.082.043-.15625.082-.20703.125-.14844.24219-.1211.33985-.082 0 0 .10546.0664.0781.18359-.0312.11328-.10156.13281-.10547.20703-.0156.082.004.0977.043.17578.0312.0742.0625.14063-.0195.23047-.11719.13281-.0391.23828.0742.25 0 0 .22656-.008.30859-.0508.10547-.0586.13672-.14844.12891-.25391-.0117-.10156-.1211-.1289 0-.25.125-.125.0742-.26172.0742-.37109 0-.10547.0234-.10156.0664-.21875s-.0742-.21875-.13281-.13672c-.0625.0937-.10547-.26172-.0508-.32422.0508-.0625.0781-.10937.11328-.21094.0391-.10546.0586-.0625.0234-.19531s-.0937-.0586-.14453-.0781c-.125-.0508-.082-.29688-.0352-.47266.0469-.17187.13281.008.24219.17188.11328.15234.12109-.20704.082-.35157-.0312-.13672.0391-.42578-.0117-.55078-.0469-.1289-.0625-.30469 0-.42578.043-.0781.0586-.33594.0625-.53516.0703-.0859.14063-.16015.35547-.125 0 .0625 0 .12891-.004.17969-.0234.0977-.0312.19922-.0937.29297-.0586.0859-.008.26172.0508.28906.0547.0273.0234.0859-.0156.15235-.0391.0664-.0547.14453 0 .17968.0508.0352-.0117.0234 0 .16797.0156.14453.0195.0703 0 .21875-.0234.14844-.043.28125.0625.28125.11328-.004.19531-.0508.23047.0352.0273.0937.0703.28125.14453.23828.082-.043.16406-.12891.15234-.27344-.004-.14843-.0742-.28515-.0742-.5.004-.21484-.008-.21484.0234-.41406.0352-.20703.0391-.19531 0-.375-.0195-.0977-.0312-.16406-.0391-.23047.0703.0625.17578.11328.40625.1211 0 .0156 0 .0351-.0234.0547-.082.1211-.082.21094-.0352.3125.0352.0898.20703.14063.0781.28516-.10547.11328-.043.27344.125.25.19141-.0273.25781.0117.22656.14844-.0391.14843.0859.17187.16797.16797.39844-.0195.39453.45703.15625.50781-.22656.0508-.23828.082-.36328.14062-.125.0586-.14844.29297-.0977.37891.0547.082.10938.15234.0352.25391-.0742.10546-.0859.21484-.0352.29296.0547.0859.0977.21485.0156.3125-.0859.10547-.13281.32422-.0664.46094.0742.13281.15625.30469.0664.375-.0977.0703-.0977.0391-.25.0156-.14844-.0273-.23047.0234-.28516-.11328-.0508-.13282.10547-.10157.0937-.25782-.0117-.15625-.0117 0-.0117-.15625s.12891-.29687.0703-.48828c-.0469-.18359.10937-.22656.0351-.375-.0703-.14453-.21093-.17578-.23047-.32031-.0195-.15234-.0469-.25391-.20312-.24219-.15625.008-.0352.69922-.0664.9375-.0273.23828-.0586.34766-.0156.46094.0391.10937.0391.12891.0352.26172-.0156.21094-.10546.22265-.0508.32422.0391.0977.004.16015-.12109.16797-.12891.0156-.26563.0664-.29297.17968-.0273.10938.125.1211.21094.0898.125-.0352.33203-.0898.41406-.0352 0 0 .19141.125.36328.14453.16797.0156.41797.0547.5586.0625.13671.008.61718 0 .875-.0508.26171-.0547.59765-.125.78515-.0703 0 0 .41016.16797.5625.17187.14844 0 .51172-.0234.66797 0 .16016.0273.58203.0742.72266.0625.14453-.0117.30468-.0312.24609-.1289-.0547-.10547-.14453-.0898-.33203-.16797-.19141-.0742-.19922-.14453-.53125-.125-.32422.0117-.37109.0703-.51563.0508-.14843-.0156-.26562-.0859-.45312-.20313-.1875-.10546-.42188-.17187-.58203-.15625-.14844.0195-.57031.0937-.71875.0547-.14844-.0391-.41016-.1289-.48828-.3164-.0859-.1836-.082-.28516-.0742-.46094.0898-.32422 0-.75781 0-.75781s0-.16407.0352-.23047c.0312-.0586.10547-.24219.1836-.29297.13281-.0625.19531-.0937.36328-.11328.17187-.0117.35937-.0664.54297-.0898.1914-.0195.98437-.14843 1.21484-.24609.23047-.0937.42188-.17969.60156-.24609.125-.0547.33985-.0937.54297-.13282.0469.13282.25782.25391.63282.10938.4375-.17969.53125-.14844.70312.0859.16406.23437.29688.30468.53125.33203.23047.0391.36328.0195.4375.1875.0703.17187.14453.34765.37891.30859.14843-.0156.28125.0352.3789.0781-.004.0117-.004.0195-.004.0312m-16.70313-.99219c.0273-.0742.0352-.0898.10938-.10547.0742-.0117.0742.0352.082.082.0117.0508.0352.043.0508.082.0195.043 0 .0742-.0273.0937 0 0-.0664.0547-.14063.0274-.0625-.0156-.10547-.10157-.0742-.17969m.13281-.82422c.0703-.0586.10938-.0586.21875-.0586.11719 0 .12891.10937.0625.14453-.082.0391-.0898.15234-.14062.21093-.0586.0547-.0898.0234-.1875-.0117-.10156-.0312-.0234-.22266.0469-.28516m.17969-.69922c-.0117-.0898.0664-.11719.16797-.0117.10547.10547.11719.0977.14844.13672.0391.043.0625.10938.0391.14844-.0234.043-.0742.0781-.1875.082-.10937.0117-.20703-.0312-.21875-.12891-.0156-.10156.0625-.13281.0508-.22656m.31641 2.03516c-.043.10156-.19922.17578-.26953.2539-.0781.0742-.22657.16407-.29688.0937-.0781-.0781-.0312-.23828.10547-.28515.11328-.0352.14453-.17188.23438-.23438.14062-.0976.30078 0 .22656.17188m-.10938-.54688c-.0898-.0351-.13281-.0781-.0898-.22656.0469-.15234.14844-.23047.20312-.27344.0508-.0469.0977-.0312.1211.0234 0 0 .0391.0742.0469.10937.008.0391 0 .0937-.0391.16016-.0352.0664-.0156.0859-.0195.16016-.008.082-.13672.082-.22266.0469m.0547-2.17187c.0508-.10157.17969-.0859.30469 0 .12109.0859.16015.22265.0586.24609-.10937.0234-.0859.15625-.15625.19141-.0625.0352-.20312-.0664-.24609-.13672-.043-.0742 0-.23047.0391-.30078m.30078-.67188c.0586-.0351.13672-.0195.20703.0664.0625.0742.19922.19922.3086.28906.10547.082.13672.0937.14453.16797.0156.0742-.11719.0937-.19922-.0234-.0742-.11328-.17578-.11328-.24219-.10156-.0664.0234-.1875-.0391-.25-.14844-.0742-.10937-.0312-.21094.0312-.25m.51563-.53125c.10547.0625.13281.20703 0 .26172-.13672.0586-.33203-.0703-.28907-.20703.043-.12891.13282-.14453.28907-.0547m.14453-.61719c.0781-.10937.14844-.10156.23437-.043.0352.0195.082.082.0977.1875.0156.1289-.0586.16406-.16797.14843-.10547-.0117-.16016.0586-.25.0156-.10547-.0625.0117-.19531.0859-.3086m.33594-.42968c.0586-.0937.14843-.10938.25781-.0352.15625.0977.13281.35938-.0273.36328-.15234.004-.28515-.23828-.23046-.32812m.55468 1.23828c.0899-.0195.0977.0977.0977.21875 0 .12109-.0469.11719-.16016.21875-.11718.0977-.13672-.0703-.17187-.14844-.0312-.0781.008-.15625.0586-.21875.0391-.0469.0937-.0508.17578-.0703m.0664-.4961c.0234-.082.10547-.21093.0664-.3789-.0469-.17578-.0352-.22656.0977-.10547.12891.125.16797.25781.16797.25781.0625.15235.0391.24219-.14844.29688-.18359.0508-.21484.008-.18359-.0703m.20703-1.4375c.125.043.082.17579.0234.21875-.0547.0469-.1836-.004-.1836-.10156 0-.10156.0586-.15234.16016-.11719m.49609.46094c.0703.0586.16407.25781 0 .38672-.16406.12891-.3164.004-.32031-.17969 0-.17968.15625-.32422.32031-.20703m-.28125-.72656c.0625-.10547.16407-.11719.29297-.0391.1836.11718.14453.41406-.0312.41797-.17968.008-.32422-.27344-.26172-.37891m.48047 1.61328c.004.0898-.0195.15625-.21093.19141-.1875.0312-.0625-.22657-.0234-.38672.043-.15235.14453-.0977.17187-.0391.0274.0508.0547.14062.0625.23437m.13672.42188c.10547.0625.13281.35937-.0391.29296-.14453-.0586-.24609.0391-.33594-.0156-.0977-.0508-.0391-.13281.11328-.24609.14453-.11329.23047-.0508.26172-.0312m.19141-2.51954c.14062.1836.22656.41016-.0117.41407-.23047.0117-.26172-.13282-.25781-.25391.0234-.29297.125-.34766.26953-.16016m.33594 1.26172c-.0195.14453-.10938.30078-.26563.34375-.16016.043-.125-.0937-.14453-.24609-.0234-.15234.0195-.25.0742-.35938.0469-.10546.0898-.10156.16015-.10546.27735-.008.19532.22265.17579.36718m.0391-1.6914c.27734-.0547.41406.33203.28906.45703-.11719.13281-.26953.16797-.34375.0156-.0625-.1289-.23047-.41797.0547-.47265m.5039.8164c.20704.0586.28125.21094.125.35157-.15234.14843-.20312-.0664-.25-.15235-.0469-.0859-.0273-.23828.125-.19922m.17969-1.12109c.0625.0937.0352.26562-.0547.33984-.0937.082-.27343-.14062-.25781-.23437.008-.0937.23828-.22656.3125-.10547m.19531.5c.0742-.0742.14454-.0312.19141.0391 0 0 .0937.26172.0937.375-.0156.10938-.10547.15235-.25.15625-.14453.0117-.16016-.11328-.24609-.21484-.0899-.10938.0117-.16016.0937-.19922.0781-.0352.0508-.0898.11718-.15625m.0547-.63281c.0312-.0664.0977-.10938.16797-.0391.0703.0703.0664.11719.0352.21485 0 0-.0352.0977-.11719.0508-.0898-.0469-.10547-.15234-.0859-.22656m.19141 4.17187c-.14063.22266-.36328.0742-.42188-.0547-.0586-.125.0937-.33984.28125-.29296.19141.043.25.17187.14063.34765m.0586-2.30859c.0312-.17969.10938-.17188.17969-.20703.19531-.10157.36328-.0781.51562.0312.14454.0977-.0273.17968-.125.33203-.0898.16015-.15234-.008-.34765.0586-.19922.0664-.25-.0351-.22266-.21484m.40625-1.99219c.28125.57422-.0859.68359-.0937.51953-.0195-.14453-.082-.39844-.125-.55859-.0352-.15625.125-.16016.21875.0391m.46875.82031s.0312.0742.21094.19532c.1875.125-.0508.28906-.16797.26953-.11719-.0234-.16406-.0547-.30078.0312-.13672.0898-.34766.15234-.33984-.10157.0156-.25781.21484-.28906.28515-.35937.0781-.0703.28125-.17188.3125-.0352m-.1875-1.1289c.1211-.0977.21485.0898.23047.20312 0 0 .0312.20313.0273.33594-.0156.125-.082.17578-.20312.0117-.11719-.16797-.17969-.45313-.0547-.55078m.44922.008c.0586-.0742.19922-.16016.25.0312.0156.0781.10156.26562 0 .29687-.10547.0352-.18359.004-.21484-.0547-.043-.0586-.0977-.19922-.0352-.27344m.28125 1.13672c-.0547.0469-.17969-.004-.17969-.10547 0-.10156.0547-.14844.15625-.10938.12891.043.0859.17188.0234.21485m.22656-.69531c.17578.0508.14844.21484.043.29687-.10156.0859-.16406-.043-.17578-.11719-.0195-.0742.0508-.20312.13281-.17968m.125-.62891c.0859.0547.0937.0977.0859.19531 0 0-.0117.10547-.10547.0781-.0937-.0234-.13672-.125-.13281-.19922.0117-.0703.0703-.12891.15234-.0742m.13672 1.26953c-.0508.0547-.11328.19141-.16406.28125-.0547.0898-.11719.11328-.17969.0625-.0742-.0469-.0352-.13281.043-.1875.0742-.0625.0664-.12891.0742-.20312.0156-.13282.125-.19532.19531-.15625.043.0156.13672.0937.0312.20312m.42188.44922c.1914.22266.16015.33203-.0781.29687-.22265-.0273-.4375-.125-.28515-.29687.15234-.17188.27734-.0937.36328 0m-.13672-1.82031c.16015-.0859.17578.14062.20703.25781.0273.125-.0352.16016-.082.16016-.42188-.008-.28516-.33204-.125-.41797m.50781.66797c.0391.0703.0391.13281-.0508.27343-.0859.14063-.0859.20703-.0625.42969.0273.21875-.0312.39453-.21484.23438-.1836-.15235-.22657-.32422-.16016-.4336.0742-.10156.10937-.26172.19141-.41406.0859-.14844.24609-.22656.29687-.0898m.0117-.64844c.0859-.11719.21875-.082.25781.0469.043.13282.0312.2461-.0508.32813-.0781.082-.14844.0586-.1875.0195-.0625-.0547-.10547-.26953-.0195-.39453m.35937.91406s.35547-.1875.21094-.25391c-.14062-.0625-.0859-.42968-.0391-.59375.0508-.16796.16797-.125.23828-.0703.0742.0586.0508.28516.0469.41016-.0117.13281-.0117.17187-.0664.26172-.0625.0937-.0625.082.10156.13672.16797.0508-.0352.28515-.1289.35156-.0977.0703-.16407.3125-.33204.17969-.16406-.13672-.12109-.34766-.0312-.42188m.60938 1.10156c.0312-.15234.14062-.23047.24609-.15234.21875.16797.10157.41797-.0664.46484-.17188.0352-.21094-.15625-.17969-.3125m.0898-1.95703c.0547-.043.13672-.0469.16016.0469.0234.10156-.004.14062-.0781.20312 0 0-.082.0664-.1289-.0195s-.0117-.1875.0469-.23047m.46094.58985c.0898.0391.0898.11328.0703.16796-.0195.0742-.10156.14844-.13281.21875-.0312.0703-.0234.14844-.0352.20313-.0195.0937-.0781.16016-.12109.17969-.0391.0195-.10937.0117-.15234-.0625-.0352-.0547-.0469-.13282-.0352-.28125.0195-.14844.13672-.26172.18359-.32422.0547-.0586.16797-.125.22266-.10156m.20703-.54297c.0977 0 .13281.0312.21875.10937.0937.082.0156.1836-.0547.16406-.10156-.0273-.19531.0664-.28125.0742-.0898.004-.082-.0391-.13671-.14453-.0586-.10156.15234-.20312.2539-.20312m.42969.89843c.12109.19141.0391.29688-.11328.4375-.15235.14063-.21094-.0469-.28906-.1875-.082-.13281-.082-.21484.10546-.30859.1836-.0898.20704-.0664.29688.0586m.16406-.76562c.16797.008.29688-.008.32031.13672.0117.13281-.0156.20312-.11718.28125-.1211.0977-.30469.22265-.35547.0469-.043-.17187-.0117-.47265.15234-.46484m.48047.60937c.0586.0508.082.125-.004.17579-.0859.043-.13671.0273-.21484-.0274 0 0-.082-.0664-.0156-.13281.0742-.0664.18359-.0586.23437-.0156m.125-.40234s.0586-.0508.13281-.0508c.0742 0 .13282.0469.16797.14453.0234.0937-.0312.17969-.11719.21094-.0781.0273-.18359-.004-.23046-.082-.0469-.0781 0-.16797.0469-.22266m.55078.24609c.13672-.0859.23047-.0195.27344.0469.0547.10156.0312.41016-.13672.55078-.16406.12891-.33594.0352-.33984-.16406-.004-.19922.0508-.34766.20312-.4336m.64844 2.29297c.10937.23438-.10156.25391-.21094.3711-.10156.12109-.28515.0859-.23047-.0273.0547-.11718.0664-.23828.0274-.35156-.0391-.10547-.0469-.20703.0312-.24609.14453-.082.28125.0156.38281.2539m-.0742-1.16406c.10938-.0664.18359-.0156.21875.043.043.082.0312.35156-.0977.46484-.13281.10547-.26953.0195-.28125-.14453-.004-.17187.0352-.29297.16016-.36328m.17578-.78516c.0625.0547.15235.25 0 .3711-.16797.125-.3125.004-.3125-.17188 0-.17187.15235-.3125.3125-.19922m.41406 2.67969c.19141.10547.14063.35938-.0742.38281-.21485.0117-.33204-.22265-.24219-.34375.0898-.125.15234-.13281.3164-.0391m-.15234-2.28906c.0937-.19141.23828-.28125.28516-.17578.0859.21094-.16407.52344-.16407.52344-.1289.26953-.21484-.16016-.12109-.34766m.38281.86328c.0117.0508.0703.125.0977.16406.0312.0352.0195.12891-.0547.20703-.0742.0703-.0742.15625-.0781.26954-.004.10546-.12891.17187-.19532.16015-.0664-.0156-.11328-.0625-.10546-.16015.008-.10547.0586-.17969.13281-.27735.0664-.082.0703-.16406.0664-.29687-.008-.14063.10938-.14453.13672-.0664m-.0195 1.26563c-.18359-.0274-.33203-.15625-.22656-.22657.10156-.0703.21875-.15234.38672-.043.23828.16407.0156.29688-.16016.26954m.23438-1.49219c.0351-.0625.0234-.13672.043-.19922.0195-.0625.0859-.13281.18359-.15625.0742-.0195.13281.0703.19531.17187.0586.10157.0352.21094-.0625.31641-.0937.10938-.1914.0742-.28515.0547-.0937-.0234-.11719-.11719-.0742-.1875m.66406.25781c.30859-.0586.35156.0391.33203.13672-.0117.10156-.21875.0508-.20703.14453 0 .0898.1875.24609.29687.14063.10938-.10157.30469-.15235.375 0 .0742.15625-.17187.33984-.375.26953-.11328-.043-.14062-.0859-.42187-.19922-.29297-.11719-.32031-.4336 0-.49219m1.05859.84766c.0664-.0234.11719.004.14844.0937.0352.12109-.0937.24218-.17578.17187-.0859-.0625-.043-.24609.0273-.26562m.73828 1.30859c.0781.13281 0 .23438-.23828.12891-.10156-.0469-.22656-.0586-.5-.0508-.26953.004-.24609-.19922-.13281-.23047.13281-.0391.21094-.0625.33594-.10157.34375-.10156.45312.11329.53515.25391m-.21093-.79687c.10937.0664.14062.21875 0 .27343-.14453.0586-.34766-.0781-.3086-.21875.043-.13672.15235-.15625.3086-.0547m-.41016 2.16015c-.004-.19922.10156-.13281.19922-.10937.14453.043.13281.21484 0 .3164-.13281.10157-.1875-.008-.19922-.20703m-.29297-1.03906c.0781-.0703.16797-.0508.2461.0508.11328.13672.004.36328-.14063.32031-.14453-.043-.18359-.30468-.10547-.37109m.043.53125c.1875.24609.14844.51953-.0234.54687-.16797.0273-.21093-.27734-.23437-.48046-.0234-.19532.15625-.1836.25781-.0664m-.27734-1.55859c.0117-.14454-.0352-.42969.15234-.26954.1875.15625.44141.67969.043.54688-.16797-.0547-.19922-.13281-.19531-.27734m-.26172 3.10546s.19922-.043.25781.0781c.0547.12109-.0625.19531-.25.16406-.1875-.0312-.0898-.21875-.008-.24219m.10547-.44921c.1914.0508.21875.2539 0 .24609-.21485-.008-.42578.0156-.39063-.10547.0234-.11719.1875-.19531.39063-.14062m-.45703-.48438c.15234-.0859.15234-.21484.28515-.17969.0859.0156.14844.0937.21094.20313.0703.10937 0 .1875-.19141.17969-.1875-.008-.33984.0742-.43359 0-.0859-.0781-.0234-.1211.12891-.20313m-.33985-.63672c-.0937-.10156.0117-.29687.17188-.14453.37109.33594.16797.57422.0586.51172-.0859-.0547-.13281-.26953-.23047-.36719m-.0586.64453c-.13672.0547-.21875-.0508-.21094-.15625.008-.10937.0781-.20312.21094-.15234.19922.0703.13281.25781 0 .30859m-.32813.54688c.0508-.15235.27344-.17969.36328-.0781 0 0 .0547.0898 0 .19922-.0586.10547-.41406.0352-.36328-.12109m-1.20312.7539s.14453-.47265.25781-.6289c.0117-.0156.0234-.0312.0352-.0469.0703-.008.13672-.0117.20312-.0273.23047-.0469.29688-.10156.38281.0742.0781.17187.28516.35547.51954.27344h.008c-.043.0156-.0781.0312-.1211.0469-.36718.13672-.36718.15234-.64062.21484-.27344.0703-.14844.0703-.56641.0898-.0273 0-.0547.004-.082.008zm.0508-1.62109c.13281.0352.11719.15625.0391.21875-.0742.0625-.125-.0352-.13281-.0859-.0117-.0586.0391-.15234.0937-.13281m-.0156-.48047c.0586-.10937.13282-.0937.16797-.0586.31641.28515 0 .42969-.18359.39062-.17578-.043-.043-.21875.0156-.33203m-.5-.20703c.0117-.19141.0781-.28906.21094-.24609.3125.10937.26563.3164.10547.48047-.16797.16015-.33203-.043-.31641-.23438m-.0937 1.17969c-.0625-.0977-.0469-.17578 0-.36328.0547-.19532.16016-.30078.29297-.15625.14453.14453.0508.46093.0508.46093-.0547.14844-.27734.15625-.34375.0586m.20313 1.07031c.0859.0117.15625.10156.082.18359-.0703.0898-.25.0625-.26562-.043-.0195-.10547.043-.15235.18359-.14063m-1.56641-2.13672c.0352-.0351.10547-.13281.125-.22265.0156-.0859.10547-.14844.14844-.082.10938.15625-.0391.32813-.15625.40625-.125.0742-.17969-.0469-.11719-.10156m-.12109-1.22656c.10937-.12109.23047.0625.26953.17578 0 0 .0586.20313.0625.33594.0117.13281-.0508.19531-.19922.043-.14453-.15625-.24609-.4375-.13281-.55469m-.18359 1.01562c-.15625-.1289-.14454-.3164-.0547-.41796.0937-.10938.15234-.0274.19531.0547 0 0 .0195.14063.0703.28907.0508.14453-.0586.20312-.21093.0742m-.35938.71875c.10938-.13671.0312-.32031.17969-.3789.20703-.0781.28125.0469.32031.19922.0195.15625.082.23437-.17969.39453-.26562.16015-.4414-.0781-.32031-.21485m-.48828-.64062c-.0586-.14453-.0117-.29688.15625-.25391.14453.0352.14453.11328.28906.10938.14844-.008.16797.0742.12891.14453-.0391.0625-.0781.0391-.22266.12109-.14844.0859-.28906.0195-.35156-.12109m-.39844.375c.008-.0898.0508-.0977.11719-.13281.10547-.0586.14062.008.16797.0586.0312.0586.082.12891.15625.15625.082.0312.14062.0156.14453.11719 0 .10547-.16797.13281-.24219.14453-.0742.008-.1875-.0234-.28125-.0781-.0898-.0586-.0742-.18359-.0625-.26562m-.3164-.59766c-.0781-.0859.0547-.14062.16015-.1914.0977-.0469.1211-.0391.19531.0273.16407.125.16407.19531.13672.26172-.0195.0625-.10156.0312-.25781.0859-.14844.0586-.14844-.10157-.23437-.1836m-.14063.71094c0-.0781.0586-.0664.12109-.0586.0547.0117.082.0742.0937.20703.0117.1289-.0742.22656-.14843.21875-.0742-.004-.10157-.0742-.0781-.14063.0195-.0703.0117-.14453.0117-.22656m.28125-3.21875c-.20703.10547-.23437-.0859-.16406-.32031.0781-.23828.10937-.19922.33203-.22656.1875-.0234.20703.043.23437.22656.0312.18359-.1914.22265-.40234.32031m.0625.26953c.0898-.0937.16406-.0625.21484-.0234.0586.0586.10938.28907.0195.42188-.0937.13281-.23438.10156-.27735-.0469-.0508-.13671-.0391-.2539.043-.35156m.0195 1.28906c-.1875-.004-.17969-.23046-.082-.34375.0898-.11328.14844-.10937.29688-.0586.10546.0312.16406.0937.16406.23438 0 .14062-.1836.17187-.37891.16796m.54688.0391c.0547-.0586.10937-.0312.1289.0273 0 0 .0274.0508-.0351.20313-.0586.15234-.16016.23437-.30469.21093-.13672-.0156-.082-.20703.0195-.25781.0977-.0508.13281-.12109.19141-.18359m.625.46093c-.10938.0625-.13672.17579-.28907.22266-.15234.0508-.0664-.29297.0352-.46094.0937-.16015.22266-.0781.27734-.008.0469.0586.0898.18359-.0234.24609m.0664-2.26171c-.14843-.0469-.18359-.30469-.10547-.375.0781-.0625.16016-.0508.24219.0547.11719.13282.004.35938-.13672.32032m.38282 1.53125c-.10157.0976-.22266-.125-.19532-.3086.0195-.17969.1211-.22656.19532-.16015.11718.10546.10937.3789 0 .46875m.0469-.92969c-.0156.13281-.0234.2539-.17578.21875-.15234-.0352-.22656-.0586-.23438-.16797 0-.10938.11719-.11719.13672-.22656.0156-.10938.0117-.26563.15235-.19532.14062.0586.125.31641.12109.3711m.10938-.56641c-.1211.0156-.21485-.0469-.125-.22656.0859-.1875.21484-.19531.2539-.11328.17578.36328-.1289.33984-.1289.33984m.30078.64844s.13672.0352.15234.23828c.004.19922-.0859.30078-.22266.36328-.1289.0625-.1289-.25-.1289-.39844.004-.14843.0586-.21093.19922-.20312m.25-.52344c.17968-.008.32031-.10156.2539.23438-.0625.33593-.17968.25781-.34375.15234-.16406-.10547-.29297-.19922-.25781-.32812.0273-.125.1875-.0469.34766-.0586m-.043-.34765c-.19922-.0274-.15625-.28125-.0937-.41797.0625-.13282.14844-.16016.3125-.0977.14062.0547.18359.11328.16797.29297-.0156.17969-.1836.24609-.38672.22266m.39062 1.48437c-.082.0664-.1875-.0508-.23047-.10156-.0508-.0469.0273-.13672.0625-.21094.0586-.10156.21485-.0937.24219.0195.0391.10938.008.22266-.0742.29297m-.35156 1.22266c-.13281.0391-.21094-.16407-.16406-.29297.0508-.125.15234-.15235.24219-.16797.16015-.0312.11718.0156.25.10156.14062.082.14062.28906 0 .28906-.13282 0-.19141.0312-.32813.0703m-.41406-.77344c-.125-.14063.0273-.23438.15234-.28125.11719-.0469.24219 0 .3125.0664.0859.0664.0898.1914-.0508.29296-.14453.10157-.29687.0586-.41406-.0781m.10547 1.69141c-.17188-.15625.25781-.44532.39062-.58204.13281-.14062.25391.004.13672.11329-.10937.10937-.16406.15234-.14844.28515.0391.32031-.20312.34375-.3789.1836m.87109-.1836c.16016.14453-.0508.39453-.19141.35938-.14062-.0391-.11718-.23828-.043-.33985.0781-.10156.13671-.10937.23437-.0195m.11328-3.16406c-.26953.0234-.25-.11719-.11719-.36719.1211-.25.27344-.12109.38672-.0312.19141.14844.008.36719-.26953.39844m-.082.50781c-.17578-.125-.0156-.25781.10938-.32812.11718-.0664.1914-.0312.28515.0469.25781.2461-.22656.40625-.39453.28125m.0742.30469c.0977-.082.16797-.004.20312.11328 0 0 .12891.26172-.10546.40625-.23047.14063-.16407-.082-.16407-.082.0781-.20703-.0391-.35547.0664-.4375m.57031.92969c-.0703.0508-.16797.0625-.23828.10156-.0664.043-.10156.10937-.14453.14844-.0664.0664-.15625.0859-.19922.0781-.0547-.008-.0977-.0547-.0937-.14062.008-.0664.0352-.13672.13672-.25.0937-.11328.25781-.14063.33594-.16016.0781-.0156.20312-.008.23828.0469.0469.0781.004.14062-.0352.17578m.48047.78125c-.008.11718-.0977.16406-.27344.0703-.16797-.0859-.22656-.23047-.20312-.37891.0352-.15234.14844-.19922.25781-.16406.28906.0859.22266.36328.21875.47266m.34766.68359c.13281.24219.0195.42578-.21875.48438-.23438.0508-.25391-.14063-.16407-.20704.0898-.0703.0781-.0937.16407-.25.0859-.14843.17187-.10546.21875-.0273m.4414-.88672c.0234.16406-.11328.24219-.37109.15625-.26172-.082.0234-.41797.15625-.45312.13672-.0391.19141.10156.21484.29687m-.46484 1.60547c-.082-.0508-.008-.12891.0391-.15625.043-.0312.14844-.0156.15625.0469.0117.13281-.11328.15625-.19531.10937m.0664.19922c.0273-.043.13671-.0664.16015-.008.0508.125-.0508.18359-.14844.16406-.0937-.0156-.0508-.11328-.0117-.15625m.10937-1.11719c-.0977-.10156-.0156-.25.0859-.21484.26953.0977.41406.30469.27344.60547-.11719.26562-.27735.21093-.25.0508.0273-.17969-.0117-.34375-.10938-.44141m.44922-1.30859c.14844.0156.17969.0703.21875.19922 0 0 .0352.13281-.10547.15625-.14453.0156-.26562-.0742-.28516-.16797-.0234-.0977.0234-.20313.17188-.1875m.0156-.80078c-.0859.0352-.21484-.0508-.1875-.13672.0234-.0898.0898-.10156.1875-.0391.0742.043.0898.13671 0 .17578m.46094.53906c-.0625.21094-.17578.0703-.32812 0-.16016-.0664-.0937-.19922 0-.34766.10156-.16797.26953-.22265.42187-.0586.14844.17969-.0352.19531-.0937.40625m.15235 1.30078c-.21875.15625-.3086-.0117-.32032-.21484-.008-.20703.10157-.20703.24219-.17188.21094.0508.29688.23438.0781.38672m.0977.26563c.0742-.0742.14063-.0977.1836.0234.0781.19922 0 .32813-.15235.27344-.16406-.0547-.0977-.23047-.0312-.29687m.0508-1.8125c.0508-.0469.13672-.0469.16407.0469.0195.0977-.004.14063-.0859.20313 0 0-.0781.0664-.12891-.0195-.043-.0898-.008-.1875.0508-.23046m.21094.73828c.0742.10156.0937.17968.0352.26172-.0664.10156-.20313.0742-.30469.0351-.0977-.0469-.17969-.21094-.10547-.34765.082-.12891.29688-.0469.375.0508m-4.80859-.88282c.0391.19922-.0156.30469-.10938.38282-.0742.0508-.11328-.0703-.14453-.19922 0 0-.0391-.20703-.23047-.13281-.19922.0742-.24219-.21485-.22265-.40235.0156-.18359.0977-.27344.22265-.24609.17578.0469.13281.27344.15625.34765.0234.0664.12891.0469.12891.0469s.16015-.0586.19922.20312m-1.52735.94922c.0859-.14453.23438-.11718.28125-.0234.10547.22265-.125.39062-.3125.36328-.1914-.0312-.0469-.19532.0312-.33985m-.30859.88282c-.21094.0391-.21484-.12891-.17578-.25782.0352-.13281.10156-.1914.20312-.15234.043.0156.0625.0391.16797.0977s.0117.26953-.19531.3125m-.14453.44531c-.0273-.0859-.004-.24219.0937-.17969.14062.0937.11719.30469.0586.33984-.0664.0391-.1289-.0703-.15234-.16015m-.0117.84765c-.0742.0625-.11719-.0312-.12891-.0898-.0195-.0547.0352-.14453.0937-.13281.12891.0391.10547.16015.0352.22265m-.81641-3.57421c.0859 0 .14844.0508.1836.16406.0273.10937-.0274.20312-.125.23437-.0859.0312-.19922-.004-.25391-.0937-.0547-.0859-.008-.18359.0469-.25 0 0 .0664-.0547.14843-.0547m.10547-.20704c-.29687-.0664-.2539-.17968-.16797-.33984.0937-.15625.25391-.23828.35938-.13672.32031.27344.0977.53906-.19141.47656m.0117 1.73438c-.0742.0156-.14453-.0352-.13672-.10938.0117-.0703.0508-.0937.13672-.0937.0937 0 .14453.082.13281.125-.008.0508-.0586.0586-.13281.0781m-.15625.32031c.0703-.0234.12109.004.14453.0937.0352.1211-.0937.24219-.17578.17969-.082-.0703-.0391-.25.0312-.27344m.16406.73438c.16407.0586.10157.22656.0312.28906-.0742.0586-.24218-.008-.24218-.13672 0-.13672.0781-.19922.21093-.15234m.36328-.53907c-.13671.0508-.21484-.0508-.20703-.16015.004-.10938.0703-.20313.20703-.14844.19922.0625.13672.25781 0 .30859m.10157-.84375c-.0664.14454-.21485.13282-.37891-.0625-.15625-.19531.23828-.32031.36328-.27734.11719.0391.0937.17578.0156.33984m-.23047-.54687c-.23438.0234.0195-.39063.0977-.51563.0859-.125.19141-.0664.24219.11329.0898.33984-.10156.37109-.33984.40234m.50781.70703c.0547.0117.12109.082.0898.16406-.0273.0703-.10546.082-.19531.0703-.082-.008-.11328-.11329-.0703-.17969.043-.0703.10937-.0664.17578-.0547m.17578-1.38672c.125-.10156.21875.0859.27735.23828.0664.17188.0547.19141-.15235.20313-.19922.0156-.17969-.0469-.18359-.16797-.0117-.12109-.0625-.16797.0586-.27344m.16406.8086c.1836.28906-.14453.4375-.30859.42578-.16797-.0156-.0195-.2461.0234-.40625.0352-.15235.18359-.17578.28515-.0195m-1.74218 1.51953c-.0859-.0625-.043-.2461.0273-.26953.0703-.0234.125.008.14844.0976.0391.11719-.0937.23828-.17578.17188m.0391-1.09375c-.15625.0273-.16797-.27344-.10547-.45313.0586-.17578.22266-.20312.30469-.0391.1289.26562-.043.46875-.19922.49219m-.58203 1.57031c.12109-.0586.23828.0586.23437.17969 0 .12109-.0898.16797-.1875.20312-.0742.0274-.21484-.0156-.23437-.13672-.0234-.12109.0703-.1914.1875-.24609m.043-1.74219c.13281.0352.14062.16016.0742.23828-.0625.082-.16407.11328-.2461 0-.11328-.16015.043-.27343.17188-.23828m.19922 1.16406c-.008.19141-.16407.19922-.26954.11719-.10156-.082-.043-.39453-.0273-.53125.0117-.13281.10938-.13672.20313-.0508.13671.11328.11328.27734.0937.46484m-.0195-1.5625c-.0586.11719-.20312.17969-.33203.082-.125-.10157-.008-.25.0352-.34375.0273-.0899.16406-.0742.25.008.082.0781.10156.15234.0469.2539m-1.02343 1.98047c.0351-.0898.0937-.0859.16797-.0625.10937.0508.14062.16797.0156.23438-.11328.0703-.22266-.0859-.18359-.17188m.14843-1.60547c.17188.004.10547.1875.0664.35547-.12109.57032-.26953.0508-.26953.0508-.24219-.22265.0312-.41796.20312-.40625m-.3164-1.09375c.1289-.17187.40234.0586.50781.20313.0977.125-.0195.24609-.35156.25391-.32813.008-.28516-.28907-.15625-.45704m-.0508.66797c.11328.0312.10937.19141 0 .32422-.11719.13281-.19141-.0234-.17578-.17187.0234-.14844.0781-.1836.17578-.15235m-.34375 1.29297c.0156-.18359.10937-.3125.26562-.28515.25.0586.21485.21093.0977.32812-.11719.11719-.375.14063-.36328-.043m.0859.94922c-.0742.0312-.17968-.0312-.21093-.0859-.0274-.0547-.0117-.10156.0312-.16406.0469-.0664.082-.0742.15234-.0508 0 0 .13672.0547.21484.0703.0703.0234.0508.0899-.0273.10938-.082.0195-.082.0859-.16016.12109m-.1914 1.0625c.11719-.0469.17187-.15234.17969-.22266.0117-.0703.10546-.11328.14062-.0352.0312.0781.008.22656-.0234.29297-.0508.0937-.125.14843-.22656.14843-.10547 0-.17187.0273-.21484-.0273-.043-.0508.0312-.10547.14453-.15625m-.0273-.71875c.0937-.0469.19141-.043.19922.0273v.10157c-.008.0898-.0195.16797-.11328.21093-.0977.043-.16015.0391-.1875 0-.0195-.043.0156-.0977.008-.16015 0-.0586 0-.12891.0937-.17969m-.1914-2.33203c.043-.11719.0977-.0937.17187-.0469.0703.0469.0859.30469.0703.41407-.0195.10937-.14454.16797-.26563.082-.125-.0898-.0234-.33985.0234-.44922m-.0625 1.37109c.0156-.0508.10156-.0977.19531-.0742 0 0 .20703.0312.23828.10157.0195.0625-.0937.0703-.14062.0977-.0508.0273-.0703.0937-.19141.0859-.11719-.0117-.10937-.16016-.10156-.21094m-.33985 1.38282c.0352-.043.0937-.0469.17188-.0508.0781-.004.24609.0898.25391.15625.0156.0625-.0391.0898-.25391.0898-.21484 0-.21484-.15235-.17188-.19531m-.21484.44921c.0547-.0312.16406-.0586.23828-.0195.0742.0391.11719.0586.10547.10547-.004.0469-.14844.0469-.19531.0781-.043.0312-.0664.0664-.125.0703-.0547.004-.10938-.0156-.10156-.0781.0117-.0625.0156-.125.0781-.15625m.53906-.98046c.0781.0547.0391.25781-.0781.26171-.11719.004-.10938-.1289-.0742-.21093.0352-.0859.10547-.0781.15234-.0508m-.13672-.39063c-.0781.0664-.21484 0-.21484 0-.0977-.0234-.14844-.0742-.14453-.125.004-.0508.0117-.0898.10156-.125.0937-.0352.125-.082.16797.008.0469.0977.16797.17969.0898.24219m-.58984.58984c.11328-.0586.16797-.13281.16797-.1914.008-.0547.0391-.16797.14844-.11328.15625.0781-.0195.3164-.0195.3164-.0273.0742-.008.20313-.10157.21094-.0898.008-.17187-.008-.23437-.0508-.0625-.0352-.0742-.10938.0391-.17188m-.65625.17188c.0586-.008.16016-.0664.23828-.0937.0742-.0352.12891-.0156.14844.0469.0195.0664-.043.0937-.125.0937-.0742 0-.10547.0508-.14063.0898-.0781.0781-.16406.0625-.19531.0117-.0156-.0391-.043-.12891.0742-.14844m.50781-1.52734s.14063.043.25.0937c.10547.0547.0703.16015-.0312.26562-.10547.10547-.082.19922-.16406.23828-.0742.043-.11719-.0898-.10937-.16015.0156-.0625-.004-.13672-.0625-.25782-.0469-.11718.043-.20703.11718-.17968m-.5.57812c-.0156-.0625.0664-.16406.17578-.0234.11719.13672.14844.24219.26172.32813.10938.0859.0312.27344-.0742.28515-.10546.0117-.21484.004-.26562-.10156-.0312-.0547-.0547-.10547-.0898-.15234-.0312-.043-.0391-.0703-.0234-.15235.0156-.0781.0352-.12109.0156-.18359m-.43359 2.0625c.0391-.125.10937-.20312.21875-.22266.11328-.0234.15234.043.16406.0977.0117.0703-.0781.26172-.21484.30469-.13672.0469-.21875-.0508-.16797-.17969m-.14453-2.48047c0 .0547.0352.0703.0156.14844-.0156.082-.0937.0352-.18359 0-.0859-.0391-.14844-.1875-.11719-.29688.0391-.11328.10156-.0742.16797-.0547.0781.0234.11719.13672.11719.20312m.14844-.51953c-.12891.0469-.20313-.0469-.19532-.15234.004-.10157.0664-.1875.19532-.14453.1914.0664.13281.25 0 .29687m.17578 1.19141c-.043.0977-.16016.043-.22266.0391-.0664-.008-.082-.0977-.0391-.16016.0391-.0703.082-.0859.15234-.0742.0859.0156.14844.10547.10938.19532m-.46485.39843c-.0156-.0898.0547-.125.125-.12109 0 0 .23828.0547.31641.11719.0859.0625.0703.14844 0 .25781-.0625.10938-.15625.0664-.28125.0781-.12109.008-.10547-.0899-.0977-.16797.0117-.0781-.0391-.0781-.0625-.16407m.12891 1.13672c-.13672.0391-.19141-.0352-.26172-.0977-.0625-.0586-.0352-.15235.0273-.1836.0547-.0391.0859-.10156.12891-.14453.0508-.043.13672-.0703.23047-.043.0625.0195.0703.125.082.23828 0 .10547-.0742.19141-.20703.23047m-.3125.75391c.0156-.0312.0703-.0742.17578-.0664.10938.004.13672-.0195.15234-.0391.0156-.0234.0898-.0391.10547.0391.0117.0859-.0898.15235-.16406.1875-.0625.0273-.16406.0937-.24219.043-.0742-.0508-.0469-.13281-.0273-.16406m-.32031-.15234c-.0586.008-.17188-.0156-.1875-.0586-.0352-.0703.004-.12109.043-.14453.0586-.0391.14453-.0352.20703-.0625.0586-.0273.0937-.0781.1289-.10937.0664-.0469.14063-.0586.17969-.0469.0391.008.0703.0508.0586.12891-.0117.0508-.0391.10547-.13281.1914-.0937.0781-.23047.0937-.29687.10157m-.2461.35937c.0352-.0508.082-.0859.15625-.10547.082-.0234.12891-.008.15625.0234.0312.043.0195.125-.0351.1875-.0508.0586-.17969.0703-.23438.0586-.0742-.0156-.0742-.12109-.043-.16406m.35938-.93359c-.0273.0977-.125.14843-.19531.14062-.0742-.0156-.12891-.0664-.082-.15234.0547-.082.10547-.0937.19532-.0859 0 0 .10937.0117.082.0977m-.11328-.58203c.0859 0 .14062-.0391.23047-.11719.0859-.0703.14453 0 .10546.0547-.0156.0351-.0352.11328-.043.14843-.0117.0391-.0781.0859-.16797.0781-.0859-.0117-.14063.0352-.21094.0898-.0781.0586-.18359.0117-.21094-.0391-.0234-.0469-.0195-.10156.0469-.15234.0742-.0508.14843-.0586.25-.0625m.26562-.94532c.0586.0664.008.1875-.11328.16016-.12109-.0156-.12109-.125-.14453-.19141-.0273-.0703.0703-.16406.25781.0312m-.0156.40625c.0234.043-.0195.0937-.0625.10938-.0469.0117-.0742.0352-.10938.0859-.0391.0508-.0781.0664-.1289.0625-.0508-.004-.0508-.0469-.0977-.10547-.0547-.0586-.0352-.13672 0-.20313.0391-.0664.0898-.0586.14844-.0586.0781-.008.23047.0664.25.10937m1.48437 1.56641c-.0586.0625-.21094.0859-.29297 0-.082-.0898.0352-.25.13672-.28125.0937-.0391.15625-.0312.21094.0352.0586.0781.004.17578-.0547.24609m-.0117-.79688c-.082.082-.0898.17969-.13672.2461-.0469.0586-.14453.0234-.16015-.0195-.0234-.043-.0508-.0547-.15235-.0586-.0937-.008-.12109-.0156-.15234-.0703-.0352-.0508-.0234-.12891.0195-.19531.043-.0508.13281-.0547.21485-.0508.0742 0 .16406-.043.23828-.0898.0781-.0469.16406-.0742.21484 0 .043.0664 0 .15625-.0859.23828m2.10157.6211c-.0664 0-.26172-.0352-.26563-.1211-.008-.0898.0742-.125.21484-.0898.28516.0664.17188.21094.0508.21094m.5664-1.0586c-.125-.0391-.49219.0352-.49219.0352s-.14062.0742-.0391.23047c.0547.0742.10156.14844.10547.21094-.0664.004-.21875-.0898-.27344-.11719-.0586-.0273-.14062-.0586-.22656-.0937.008-.0312.0234-.0586.0234-.0859.008-.16406-.0508-.42187.0703-.55859.125-.13672.29688-.19141.35547-.10547 0 .0117.0156.0312.0273.0508-.0195.008-.0273.008-.043.0156-.16796.0937-.25781.33203-.10937.36328.10937.0156.25391-.0586.33203-.16797.0547.043.12891.0742.23438.0703.30859-.0156.41015-.13672.49218-.23047.0859-.0937.25-.125.32422-.0195.008.0117.0195.0195.0273.0273h-.004s.0352.0742.043.1875c-.004.10547.0156.17579.0898.21875.0664.0391.21094.0391.28516-.0391v.008s.13281-.12109.17578 0c-.008.10157-.0156.19141-.0234.25-.004.0312-.004.0586-.004.0898h-.004c-.0312.17969-.0664.25781-.24219.28125-.16015.0195-.41406-.0977-.66797-.16797v-.004s-.17187-.043-.25-.17187c-.0703-.125-.125-.25781-.20703-.27735m-.24219.22657c.0547-.0547.11719-.008.17579.0508.11718.10156-.0234.20703-.0859.15625-.0664-.0547-.14844-.15235-.0898-.20703m.0273.71484c.0625-.17187.21484-.19922.28125-.15625.0625.043.0625.11719-.0156.23047-.11328.14844.0117.29297-.125.31641-.1289.0234-.21093-.21485-.14062-.39063m2.0664-.0664c.0547.0547.0469.15625.008.1875-.0352.0352-.0937.11329-.0742.16016.0234.0391.0469.0977.008.15234-.0312.0547-.0117.12891.0469.16407.0664.0352.0898.22656-.008.25781-.10156.0312-.14453.16406-.0898.21875.0508.0508.0508.14453 0 .1875-.0547.0391-.0469.0859-.0234.16797.0234.0742.043.28125-.0859.2539-.125-.0234-.0898-.17578-.1914-.25-.10156-.082-.19922-.0625-.26563-.16796-.0664-.0937-.0937-.24219.0352-.35547.13672-.10938.24609-.0547.24609-.20703.004-.14844-.0859-.21485-.17187-.17188-.0937.043-.25391-.14844-.375-.0156-.0508.043-.34766.21484-.45313-.14063-.10156-.35156.19922-.53516.29688-.46094 0 0 .12109.10547.22656.0742.10547-.0234.15625-.0547.28125.0391.125.10157.30469.008.30078-.13281-.0117-.13281.0859-.1914.0703-.34375-.008-.16015.10547-.20312.1836-.16797.082.0352.13281.17188.0664.29688-.0508.12109-.082.20312-.0312.2539m3.67188.47266c.0273.0703-.10547.082-.16016.10938-.0508.0312-.0781.10156-.20703.0898-.13281-.008-.12109-.17188-.10547-.23047.0117-.0547.10547-.10547.20703-.0742 0 0 .23438.0352.26563.10547m-.49609-.34375c-.1875.008-.46094-.14062-.46094-.14062-.16016-.14454-.21875-.33204-.22656-.54688-.004-.21094.0195-.42578.0195-.58594v-.008c.0391-.0703.0859-.13672.20703-.15234 0 0 .20312-.0547.23437.16406.0117.0703.0312.13281.0625.1875-.0976.0937-.16015.26172-.0937.37891.0469.0937.16797.0898.26172-.0703.0352-.0586.0508-.1289.0508-.19531 0 0 .0117.004.0274 0 .22656-.043.27734-.10937.3789.0703.10547.17969.19922.20313.34375.17578.0508-.008.0899-.004.13282-.004-.0312.0547-.0625.10156-.082.15625-.125.30859-.17187.33594-.30859.4375-.14062.10547-.42187.13281-.54687.13281m4.29687-.043c-.0742.0352-.27344.082-.26172-.0586.0117-.13672.14453-.21094.26172-.16797.19141.082.0781.19531 0 .22656m-.11719-.39844c-.19531.0781-.22656-.0273-.22265-.34375 0-.3164.3164-.21484.40234-.0547.11719.21875.0117.32031-.17969.39843m.75782-1.35937c-.0664.16797-.26954.0781-.37891.0664-.11328-.0156-.13281-.16407-.0625-.27735.0625-.11328.14453-.15234.26172-.125.14844.0274.25781.17188.17969.33594m.125 1.91406c-.0312.0977-.10157.13281-.22657.0937-.17187-.0469-.21484-.29687-.0625-.33984.13672-.0469.32422.14453.28907.24609m-.0156-1.16797c.0352.0977.0156.19141-.0156.3125-.0195.10547 0 .1836.0742.3086.0625.13281-.0508.18359-.10546.12109-.0273-.043-.11719-.0859-.16407-.10937-.0391-.0234-.0742-.1211-.0312-.22266.0391-.0977 0-.17578-.043-.28516-.0352-.10547.0469-.21875.11329-.23437.0703-.0117.13671.0117.17187.10937m.22656-.61718c.0312-.1875.0859-.26172.19922-.082.10938.17969.23047.21094.11328.40235-.10156.15625-.25781.15234-.41406.0625-.16406-.0859.0625-.19922.10156-.38281m0-.75782c.12891.043.082.17578.0234.21875-.0586.0469-.18359 0-.18359-.10547 0-.10546.0586-.14843.16015-.11328m.39063 1.89063c-.16016.0195-.26563-.0859-.3086-.3086-.043-.22265.17969-.1914.3086-.0469.12109.12891.16406.34375 0 .35547m-.21094 1.05078c-.14844.10156-.3125-.0352-.27344-.16406.0312-.12891.15625-.3086.27344-.19532.1875.17579.14453.26172 0 .35938m.34375.375c.043.10547-.17187.16016-.23437 0-.0586-.15625.10156-.29688.23437 0m.043-1.05469c.22266.33203-.31641.0937-.36719-.0391-.0703-.13281.23047-.14844.36719.0391m.13281.4961c.13281.043.082.17187.0234.21484-.0586.0469-.17969-.004-.17969-.10156 0-.10547.0586-.14844.15625-.11328m.21875-.36329c-.0234-.19531-.0508-.39843-.0859-.59375-.004-.0117-.008-.0195-.0156-.0352-.0469-.25781-.11719-.51172-.19141-.75781-1.08203-3.51172-4.33593-6.0586-8.19531-6.0586-4.73828 0-8.57422 3.83985-8.57422 8.57422 0 .13281.0117.26563.0195.39063.20703 4.55078 3.95313 8.17968 8.55469 8.17968 4.73047 0 8.57031-3.83593 8.57031-8.57031 0-.18359-.0117-.36328-.0273-.55078-.004-.0664-.004-.13672-.0117-.21094-.004-.125-.0273-.23828-.043-.36719"/></g><g fill="#231f20"><path d="m729.02645 687.75741c-.28125.3711-.63281.55079-1.07422.5586-.51172.004-1-.31641-1.20703-.64844-.28906-.44531-.39844-.87891-.39063-1.46094 0-.66797.16407-1.21093.44922-1.58203.28516-.375.64844-.55078 1.08985-.55859.5664-.0117.97656.27734 1.19921.64453.28125.44922.39063.94141.39063 1.52734 0 .73047-.17188 1.14453-.45703 1.51953m-1.09766-3.98828c-.97265.0156-1.58594.3125-1.98437.80469-.35157.4375-.53516.96094-.55078 1.58203-.0117.6836.17968 1.25781.5664 1.71485.44141.47265 1.0586.72265 1.84766.73828.84765.0195 1.5039-.20313 1.97265-.72266.39844-.44531.60547-1.01172.61719-1.69531.0156-.62891-.082-1.10547-.41406-1.52344-.42578-.52344-1.12891-.91406-2.05469-.89844"/><path d="m738.65145 687.75741c-.28125.3711-.63281.55079-1.07422.5586-.51172.004-1.00391-.31641-1.21484-.64844-.28125-.44531-.39063-.87891-.38282-1.46094 0-.66797.16407-1.21093.44922-1.58203.28516-.375.64063-.55078 1.08985-.55859.5664-.0117.97656.27734 1.19921.64453.27735.44922.39063.94141.38672 1.52734 0 .73047-.16797 1.14453-.45312 1.51953m-1.09766-3.98828c-.97265.0156-1.58594.3125-1.98828.80469-.34766.4375-.53125.96094-.54687 1.58203-.0117.6836.17578 1.25781.5664 1.71485.44141.47265 1.0586.72265 1.85156.73828.83985.0195 1.5-.20313 1.96485-.72266.40234-.44531.60937-1.01172.625-1.69531.0117-.62891-.0859-1.10547-.41797-1.52344-.42188-.52344-1.13281-.91406-2.05469-.89844"/><path d="m782.50301 683.9371c-.375 0-.75391-.0273-.75391-.0273v.0469s.20313.0195.32813.12891c.125.10937.082.23437-.0156.44531-.10546.2461-.29687.53125-.57031.94141-.30859.46094-.36719.50781-.36719.50781s-.21093-.29687-.57031-.85547c-.26562-.41406-.54687-.82031-.47265-1.0039.0664-.15625.3164-.16407.3164-.16407v-.0469s-.17578.0273-.86719.0273c-.6914 0-.7539-.0273-.7539-.0273l-.004.0469s.11719.008.25391.10547c.13672.0899.20703.22656.28515.35547.29297.46875 1.16016 1.97266 1.16016 1.97266v.47265c0 .26172-.008.625-.0195.875-.0156.23438-.0117.375-.14844.53516-.1289.15234-.28515.16016-.28515.16016v.0508s.17578-.0273.88281-.0273c.71094 0 .85156.0273.85156.0273v-.0508s-.15625-.008-.28906-.16016c-.13672-.16016-.13281-.30078-.14453-.53516-.0156-.25-.0156-.61328-.0156-.875v-.48437s1.25391-1.95703 1.41797-2.14453c.22266-.27735.44922-.27735.44922-.27735v-.0469s-.23047.0273-.66797.0273"/><path d="m725.74129 683.90976s-.23047.0234-.66406.0234c-.375 0-.75781-.0234-.75781-.0234v.0508s.20312.0156.32812.125c.125.10937.082.23437-.0117.44531-.10937.2461-.30078.53125-.57422.9375-.30859.46094-.36718.51172-.36718.51172s-.21094-.30078-.57032-.85547c-.26562-.41015-.54687-.82031-.47265-1.0039.0703-.15235.32031-.16016.32031-.16016v-.0508s-.17969.0234-.87109.0234c-.69141 0-.75391-.0234-.75391-.0234l-.004.0508s.11719.004.25391.0977.20703.23046.28906.35937c.28516.46875 1.15235 1.97266 1.15235 1.97266v.47265c0 .26563-.004.625-.0156.875-.0117.23047-.0117.375-.14844.53125-.13281.15625-.28515.16407-.28515.16407v.0508s.17969-.0273.89062-.0273c.70703 0 .84375.0273.84375.0273v-.0508s-.15625-.008-.28906-.16407c-.13672-.15625-.13281-.30078-.14453-.53125-.0156-.25-.0195-.60937-.0195-.875h.004c0-.0742 0-.48047 0-.48047s1.25391-1.96093 1.41016-2.15234c.23047-.26953.45703-.26953.45703-.26953zm0 0"/><path d="m758.28426 683.90976v.0508s.1875.0195.30859.14062c.17188.16016.0664.40235.0273.52735-.0352.1289-.59375 1.63281-.59375 1.63281l-.56641 1.54297-.71875-1.87109-.625-1.4961c-.14453-.40625.13281-.47656.13281-.47656v-.0508s-.23046.0234-.69531.0234c-.46484 0-.83203-.0234-.83203-.0234v.0508s.3125 0 .48047.40625l1.625 4.11719h.86328s1.41797-3.8125 1.47266-3.96875c.0586-.15235.0898-.25.21875-.38672.14453-.16016.32812-.16797.32812-.16797v-.0508s-.25.0234-.71484.0234c-.46875 0-.71094-.0234-.71094-.0234"/><path d="m746.22957 683.90976v.0508s.14063.008.25391.16016c.12109.16015.12109.30078.12891.53515.0117.25.0156.60938.0156.875v.78906c0 .32422.008.92188-.21875 1.28516-.32812.52734-.91406.52344-1.28125.50391-.41797-.0156-.78906-.25-.98047-.61328-.16797-.31641-.16797-.85157-.16797-1.17188v-.79297c0-.26562 0-.625.0156-.875.008-.23437.004-.375.125-.53515.11719-.15235.2539-.16016.2539-.16016v-.0508s-.25.0273-.875.0273-.7539-.0273-.7539-.0273v.0508s.13672.008.2539.16016c.1211.16015.1211.30078.12891.53515.0117.25.0195.60938.0195.875v.96485c0 .55859.0781.98046.25391 1.27343.1914.32422.40625.46094.64453.60157.30859.16796.79687.26953 1.26172.2539.46875-.0234.80078-.14453 1.05078-.3125.26953-.17969.38672-.32031.50391-.54687.14843-.26953.22656-.72657.22656-1.28907v-.94531c0-.26562.004-.625.0156-.875.0156-.23437.008-.375.12891-.53515.11719-.15235.25391-.16016.25391-.16016v-.0508s-.28125.0234-.63282.0234c-.35156 0-.625-.0234-.625-.0234"/><path d="m752.83895 683.90976v.0508s.14844.008.27734.16016c.12891.16015.125.30078.14063.53515.0156.25.0156.60938.0156.875v1.29297c0 .26563 0 .66406-.0117.91406-.0156.23047-.0117.375-.14453.53125-.125.15625-.27344.16407-.27344.16407v.0508s.17188-.0273.85157-.0273c.67578 0 .80859.0273.80859.0273v-.0508s-.14844-.008-.27344-.16407c-.13281-.15625-.1289-.30078-.14453-.53125-.0117-.25-.0195-.64843-.0195-.91406v-1.29297c0-.26562.008-.625.0195-.875.0156-.23437.0117-.375.14453-.53515.12891-.15235.27735-.16016.27735-.16016v-.0508s-.16016.0234-.84375.0234c-.67969 0-.82422-.0234-.82422-.0234"/><path d="m772.47957 683.90976v.0508s.14453.008.27344.16016c.13281.16015.12891.30078.14453.53515.0117.25.0156.60938.0156.875v1.29297c0 .26563 0 .66406-.0156.91406-.0117.23047-.0117.375-.13672.53125-.1289.15625-.27734.16407-.27734.16407v.0508s.16797-.0273.84766-.0273c.67968 0 .80859.0273.80859.0273v-.0508s-.14453-.008-.26953-.16407c-.13672-.15625-.13281-.30078-.14453-.53125-.0156-.25-.0195-.64843-.0195-.91406v-1.29297c0-.26562.004-.625.0234-.875.0156-.23437.008-.375.14063-.53515.125-.15235.27734-.16016.27734-.16016v-.0508s-.16406.0234-.84375.0234c-.68359 0-.82422-.0234-.82422-.0234"/><path d="m734.79207 683.86288s-.0898.0781-.58593.0781h-2.9336c-.48828 0-.58594-.0781-.58594-.0781h-.0391s.0312.125.0195.51953c-.008.25-.0195.47657-.0195.47657h.0391s.14063-.33203.29297-.47266c.14063-.12891.33985-.11328.51563-.125.125-.004.36719-.004.60937-.004h.23828v2.60547c0 .26563-.004.625-.0156.875-.0117.23047-.0117.375-.14063.53516-.125.15234-.27734.16016-.27734.16016v.0508s.17188-.0273.85547-.0273c.6875 0 .82422.0273.82422.0273v-.0508s-.15235-.008-.27735-.16016c-.13281-.16016-.1289-.30469-.14453-.53516-.0117-.25-.0195-.60937-.0195-.875.004-.22656.004-.39843.004-.39843l.008-2.20704h.21484s.48438 0 .60938.004c.17578.0117.375-.004.51562.125.15235.14063.29297.47266.29297.47266h.0391s-.0156-.22657-.0195-.47657c-.008-.39453.0195-.51953.0195-.51953zm0 0"/><path d="m778.60457 683.8082s-.0976.13281-.58984.13281h-2.9375c-.49219 0-.58203-.13281-.58203-.13281h-.043s.0312.17968.0195.57421c-.004.25-.0195.47657-.0195.47657h.043s.13281-.33203.28906-.47266c.14453-.12891.33984-.11328.51953-.12109.125-.008.36328-.008.60547-.008h.23828v2.20704.39843c0 .26172 0 .625-.0156.875-.0117.23438-.008.375-.13672.53516-.125.15234-.27735.16016-.27735.16016v.0508s.16797-.0273.85157-.0273c.67968 0 .82812.0273.82812.0273v-.0508s-.15234-.008-.27734-.16016c-.13281-.16016-.13281-.30078-.14453-.53516-.0117-.25-.0195-.61328-.0195-.875 0-.22265.004-.39843.004-.39843l.004-2.20704h.21484s.48438 0 .60938.008c.17968.008.375-.008.51953.12109.15234.14063.29687.47266.29687.47266h.0352s-.0156-.22657-.0195-.47657c-.0117-.39453.0195-.57421.0195-.57421zm0 0"/><path d="m751.16317 683.90976v.0508s.14062.008.2539.16016c.1211.16015.11719.30078.13282.53515.008.25.0156.80078.0156 1.06641v1.35937l-2.54297-3.16406c-.0859.008-.1875.0156-.48828.0156-.0977 0-.19531 0-.28125-.004-.21094-.008-.35547-.0195-.35547-.0195v.0508s.13672.008.25391.16016c.12109.16015.12109.30078.13281.53515.0117.25.0195.61328.0195.88281v1.31641c0 .26563-.004.63281-.0156.88281-.0156.23047-.0117.375-.12891.53125-.12109.15625-.25781.16407-.25781.16407v.0508s.16797-.0273.63281-.0273c.35156 0 .63281.0273.63281.0273v-.0508s-.14062-.008-.25781-.16407c-.12109-.15625-.11719-.30078-.125-.53125-.0156-.25-.0234-.61718-.0234-.88281v-1.32031c0-.16406.004-.46094.008-.64844l2.91015 3.59766h.37891c-.0195-.0781-.0312-.33594-.0312-1.13282v-1.6289c0-.26563.004-.81641.0156-1.06641.0117-.23437.0117-.375.13282-.53515.11328-.15235.2539-.16016.2539-.16016v-.0508s-.22656.0234-.63672.0234c-.42578 0-.6289-.0234-.6289-.0234"/><path d="m763.69442 687.4371s-.11719.33203-.35157.47656c-.16406.0977-.33984.10938-.51953.1211-.12109.008-.60547.004-.60547.004-.082 0-.68359 0-1.04296 0v-1.72656c.26562 0 .7539.004 1 .0156.23437.008.37109.008.53125.1289.15234.11719.16406.25391.16406.25391h.0469s-.0273-.22656-.0273-.63281c0-.42578.0273-.62891.0273-.62891h-.0469s-.0117.13281-.16406.25391c-.16016.12109-.29688.11718-.53125.1289-.2461.0117-.73438.0195-1 .0195v-1.5625h.86718s.48047 0 .60547.004c.17969.008.35938.0195.51953.125.22657.14063.35157.47266.35157.47266h.0391s-.0234-.25782-.0234-.50782c0-.30078.0234-.48828.0234-.48828h-.0391s-.0391.0195-.53125.0195c-.19141 0-.46875.0117-.67188.0117 0 0-1.44531.0117-1.61328.0117-.67969 0-.82422-.0273-.82422-.0273v.0469s.14844.008.27734.16407c.13282.16015.12891.29687.14063.53515.0117.25.0156.60938.0156.875v1.29297c0 .26563 0 .66406-.008.91406-.0156.23047-.0156.375-.14453.53516-.125.15234-.27734.16016-.27734.16016v.0508s.17187-.0273.85156-.0273h1.53906.21485c.21484 0 .48437.0117.67578.0117.49609 0 .53125.0234.53125.0234h.0391s-.0195-.14063-.0195-.51563c0-.25.0195-.53906.0195-.53906zm0 0"/><path d="m771.26473 686.16757c-.15625-.082-.71875-.36328-1.01172-.55078-.50781-.3125-.59375-.49219-.61328-.73047-.0273-.35156.22266-.65625.64844-.67578.33984-.0234.59375.0898.83984.26172.36719.26172.57422.64062.57422.64062h.0742s-.0234-.14453-.0234-.51953c0-.37109.0234-.58203.0234-.58203h-.0312s-.0586.15625-.15625.15625c-.13672 0-.33203-.15625-.67969-.24219-.61328-.15234-1.08984-.0781-1.47266.12891-.3164.17187-.61328.53516-.5664 1.08203.0156.20313.125.5.39062.71875.27735.23047.86719.53516 1.15235.69531.61328.34375.80468.51563.76562.92578-.0312.24219-.26953.67188-1.01562.61329-1.03125-.0859-1.29297-1.07422-1.29297-1.07422h-.082s.0273.23828.0273.67187c0 .44141-.0273.79688-.0273.79688h.082s.0742-.14063.28125-.16407c.10156-.008.21875.0195.51953.13282.43359.15234 1.03516.10937 1.36719.0117.57422-.1836.91797-.625.96093-1.07422.0625-.63672-.32812-1.01953-.73437-1.22266"/><path d="m765.4952 686.15195v-1.91407s.1914-.008.77734-.008c.59375 0 1.07422.26563 1.08985.92188.0117.45703-.24219.8125-.62891.92578-.49609.14843-1.23828.0742-1.23828.0742m2.39453 1.8125c-.11328-.13282-.9375-1.29688-1.07813-1.49219.043-.008.0781-.0195.1211-.0273.60937-.15234 1.10547-.5664 1.10547-1.30859 0-.71484-.4961-1.05078-.875-1.14844-.32422-.0859-1.48828-.0469-2.14844-.0586-.55859-.008-.75781-.0195-.75781-.0195v.0508s.15234.004.27734.16016c.12891.16015.12891.30078.14453.53515.008.25.0117.60938.0117.875v1.29297c0 .26563 0 .66406-.0117.91406-.0156.23047-.0117.375-.14453.53516-.12109.15234-.27344.16016-.27344.16016v.0508s.17188-.0273.85157-.0273c.67578 0 .82031.0273.82031.0273v-.0508s-.14844-.008-.27344-.16016c-.13281-.16016-.13281-.30469-.14453-.53516-.0117-.25-.0195-1.13281-.0195-1.13281l.45703-.0156 1.26953 1.84375c.0195.0312.0508.0508.0898.0508h1.25782v-.0508s-.19532-.0156-.33985-.125c-.11718-.0859-.18359-.15625-.33984-.34375"/><path d="m721.08114 688.28085c-.14454-.10547-.54688-.49609-.71485-.6914l-1.55859-1.75s1.60937-1.39844 1.92578-1.64844c.0859-.0664.25781-.20703.38672-.23047v-.0508c-.22266.0117-.50781.0156-.73438.0156-.5 0-.79297-.0156-.79297-.0156v.0508s.14063.004.26954.0547c.42187.15625-.13672.58203-.31641.74218 0 0-.20703.16797-.55469.45313-.36328.30078-.83203.65625-.90625.70312 0 0 .004-.35546.004-.38281 0-.26562.004-.625.0156-.875.0117-.23437.0117-.375.14063-.53515.125-.15235.27344-.16016.27344-.16016v-.0508s-.16797.0234-.85157.0234c-.68359 0-.82422-.0234-.82422-.0234v.0508s.14844.008.27344.16016c.13281.16015.13281.30078.14453.53515.0117.25.0156.60938.0156.875 0 .0274.008 1.30078.008 1.33203v.0508c0 .26172-.008.57422-.0156.82422-.0156.23438-.0117.375-.14454.53516-.125.15234-.27734.16016-.27734.16016v.0508s.17188-.0273.85547-.0273.81641.0273.81641.0273v-.0508s-.14844-.008-.27344-.16016c-.13281-.16016-.12891-.30078-.14063-.53516-.0156-.25-.0195-.5625-.0195-.82422v-.65625l.82813.89844 1.17968 1.27344c.0234.0273.0508.0352.0859.0352h1.23047v-.0469s-.10547.0156-.32812-.13672"/><path d="m723.15145 672.60116h-1.90235v-1.03125c.2461-.14843.27735-.27734.27735-.27734l-1.57031-.14453s.125.0664.125.20312l.0117 1.25h-3.57421l.18359.17969h7.63281c.0742 0 .51953.0312.63281-.1914l-1.10546-.75zm0 0"/><path d="m719.5577 677.28085-1.36328-.66406c.0117.0586.008.14844-.0742.26562-.27344.42969-1.00781 1.34375-1.70703 1.87891l.0156.0391c.4336-.11718 1.25-.3164 2.73828-1.39062.19532.004.34375-.0625.39063-.12891"/><path d="m719.04598 673.80038h3.3125v1.82422h-3.3125zm3.3125 2.46875s.22656.0234.40234-.008c.58203-.10156.74219-.35937.74219-.35937v-1.67969c.30859-.13281.36328-.26953.36328-.26953l-1.14453-.78516-.42969.45313h-3.17187l-1.30469-.42969s.0977.0898.11328.27344l.008 2.84375s.3086-.0156.58204-.13282c.35937-.15234.52734-.37109.52734-.37109h1.125v2.5c0 .28906-.16016.28906-.39844.26953-.51172-.0234-1.40625-.13672-1.40625-.13672l.0312.0859c.79297.24219 1.05469.36328 1.14844.42578.17578.12109.23828.35547.25391.68359 0 0 .27734.0625.47656.0547.41406-.0195 1.00781-.32031 1.00781-1.20312v-2.67969h1.07422zm0 0"/><path d="m721.78426 676.83945v.0664c.60156.42969 1.21094 1.1836 1.51172 1.83985.15625.10546.28906.17187.42578.1914.38672.0469.77734-.22656.69531-.71094-.082-.45312-1.0625-1.3164-2.63281-1.38671"/><path d="m732.96395 674.56991c.32812.33204.94922 1.00782 1.01953 1.98047.0547.75-.34766 1.03125-.94922.96094-.19531-.0195-.52344-.0703-.52344-.0703v-5.10156h1.16797c-.0977.54296-.63281 1.90625-.71484 2.23046m-4.03516-1.51171h.95703c-.23047.42578-.53125.90625-.91406 1.39062h-.043zm.85938 2.71875v1.33593h-1.70703v-.93359c.1914-.13281.37109-.26563.53125-.40234zm0 2.88671h-1.70703v-1.36718h1.70703zm3.74609-6.48828h-.92578l-1.09766-.60156c.0547.0352.0664.15234.0664.15234v2.54688l-.58984-.40234-.54297.57812h-.5c.53906-.61719.94531-1.19531 1.23437-1.75391.23047-.0469.27344-.16406.27344-.16406l-1.06641-.57422s-.0156.10157-.11328.32422c-.0508.12891-.13281.28516-.21875.44922l-.50781-.33594-.48438.48828h-.13281v-1.20312c.20703-.12109.23438-.23438.23438-.23438l-1.30469-.13281s.0937.0664.0937.17969v1.39062h-1.19922l.18359.17579h1.01563v1.39062h-1.63672l.17578.17578h2.33594c-.043.0469-.082.0977-.12109.14453-.2461.28125-.49219.53907-.72657.77344l-.91406-.26562c.0625.0547.0625.14843.0625.14843v.89453c-.46875.39063-.90625.69141-1.3125.91797l.0156.14063c.39062-.1211.83984-.33203 1.29687-.58985v2.72266s.22656.0352.41016-.008c.48047-.0977.54297-.36328.54297-.36328v-.28516h1.70703v.55078s.24609.0156.43359-.0351c.35938-.10938.51172-.36329.51172-.36329v-2.9414c.15625-.0469.33594-.17969.34375-.25391l-.97266-.67969-.41797.45704h-.85546c.10546-.0859.19531-.17579.28906-.26172.24219-.24219.46875-.47657.67187-.70313h1.78516v4.95703s.21484.0898.46094.0117c.41406-.125.47265-.3789.47265-.3789v-1.66797c.27735.0352 1.00391.46484.90625 1.16797 0 0 .58594-.0781 1.07422-.45704.45313-.35156.46875-1 .44922-1.27343-.0742-.90235-.58203-1.69141-1.71094-2.41797.38282-.5586 1.07422-1.22656 1.4375-1.78125.1875-.0273.33594-.14453.3711-.23047l-.98438-.9375zm0 0"/><path d="m742.40145 676.63632c-.8125-.91406-1.27344-2.17187-1.39063-2.61328h3.31641c.0742 0 .54297.0352.65625-.19922l-1.15234-.77344-.73829.77735h-2.23828c.0274-.4336.0977-1.32813.0977-1.64063l.0273-.54687c.26563-.17578.38282-.33594.38282-.33594l-1.73047-.13672s.082.0742.0859.23828c0 0 .10938 1.07031-.004 2.42188h-3.33594l.18359.19531h3.13282c-.0977.96875-.30078 2.05078-.72657 2.98828-.54296 1.19141-1.63281 2.07031-2.5 2.41797l.0391.13281c1.33203-.24609 2.65234-.94922 3.30468-2.0625.51563-.8789.82422-1.73437.96485-2.92969.25781 1.44141 1.20703 3.6875 2.75 4.65235.25.14844.48828.23437.48828.23437s-.0469-.23437.0234-.46875c.15625-.5039.63281-.68359 1.08203-.67187l.008-.0977c-1.10156-.21875-1.84375-.59375-2.72656-1.58203"/><path d="m748.33504 672.78085c.19141.16016.37891.19531.54297.14844.30469-.0898.5-.38672.36328-.8125-.13281-.41797-.83984-.82422-1.80078-.80469l.0391.0586c.37891.30078.71094.88671.85547 1.41015"/><path d="m750.15145 672.5582c.13281.23828.41797.30468.60156.26953.40625-.0781.5625-.46875.41406-.85547-.22265-.5625-1.16406-.89844-1.9375-.89063l.0312.043c.47657.27344.85157.88281.89063 1.4336"/><path d="m753.6202 675.82382-.66797.71484h-1.84766v-.45312l1.50391-.75391c.28125.0156.48437-.10547.55078-.23047l-.23047-.17187 1.34375-.71094c.19922 0 .34766-.0703.39844-.16797l-1.12891-.87109-.2539.27344h-1.48047l1.57031-1.34766c.36328-.0469.42578-.22266.42578-.22266l-1.78125-.78125c.13672.17579-.27734 2.03907-.3789 2.35157h-3.875c-.0469-.19141-.1211-.41407-.19922-.61328h-.0899c-.14453.71484-.35547 1.04687-.63281 1.24609-.28125.19922-.42187.39062-.43359.65234-.0195.36328.27734.60547.59765.60547.44141 0 .82422-.48828.82422-1.2539 0-.17188-.0117-.27735-.0352-.46875h5.5039c-.125.36718-.39453.9414-.53515 1.18359l-.10938-.082-.75-.52735-.26953.34766h-3.52344l.17188.18359 3.36328-.004s-.25781.53125-.62891 1.07422l-1.08203-.20313c.0781.0586.0859.1875.0859.1875v.75781h-3.51953l.17187.1836h3.34766v1.21094c0 .30078-.0859.34375-.47266.30078-.0586-.008-1.08984-.19532-1.28515-.21485l-.008.125c.76172.14453 1.32813.3086 1.36719.9375.0117.26563-.0391.39453-.0391.39453s.3125.0195.51562-.0273c.86719-.19531 1-.64844 1-1.14453v-1.58203h2.97266c.0703 0 .49219.0273.60156-.1836zm0 0"/></g></g></svg>